<?xml version="1.0" encoding="utf-8"?>
<!-- Generator: Adobe Illustrator 24.0.0, SVG Export Plug-In . SVG Version: 6.00 Build 0)  -->
<svg version="1.1" id="Camada_1" xmlns="http://www.w3.org/2000/svg" xmlns:xlink="http://www.w3.org/1999/xlink" x="0px" y="0px"
	 viewBox="0 0 37.8 35" style="enable-background:new 0 0 37.8 35;" xml:space="preserve">
<style type="text/css">
	.st0{fill-rule:evenodd;clip-rule:evenodd;fill:#6F6F6F;}
</style>
<path class="st0" d="M4.5,2.8h28v15.8h-1.4c-0.4,0-0.7,0.1-1,0.3v-0.3H28c-0.3,0-0.7,0.1-1,0.3v-0.3h-3.8v0.3
	c-0.3-0.2-0.7-0.3-1.1-0.3h-2.5v0.3c-0.3-0.2-0.7-0.3-1.1-0.3h-2.8L15,19.3l-0.6-0.7h-4.2v4.8h4.2l0.7-0.7l0.6,0.7h2.6v-1.1h0.2
	c0.4,0,0.8,0,1.1-0.2v1.3h2.1v-1.2h0.1c0.1,0,0.2,0,0.2,0.2v1.1h6.4c0.4,0,0.7-0.1,1.1-0.3v0.3h2c0.4,0,0.8-0.1,1.1-0.2V32h-28V17.5
	H6l0.3-0.8H7l0.3,0.8H10v-0.6l0.2,0.6h1.4l0.2-0.6v0.6h6.6v-1.3h0.1c0.1,0,0.1,0,0.1,0.2v1.1H22v-0.3c0.4,0.2,0.8,0.3,1.3,0.3h1.4
	l0.3-0.8h0.7l0.3,0.8h2.7v-0.7l0.4,0.7h2.2v-4.7h-2.2v0.6l-0.3-0.6h-2.2v0.6l-0.3-0.6h-3c-0.4,0-0.9,0.1-1.3,0.3v-0.3h-2.1v0.3
	c-0.3-0.2-0.6-0.3-0.9-0.3h-7.6L10.9,14l-0.5-1.2H8v0.5l-0.3-0.6h-2l-1,2.3V2.8H4.5z M18.6,13.4c0.3,0,0.6,0,0.9,0.2l0,0
	c0.3,0.2,0.4,0.5,0.4,0.8c0,0.4-0.2,0.7-0.6,0.9c0.2,0.1,0.3,0.2,0.4,0.3c0.1,0.2,0.2,0.4,0.2,0.6v0.6h-0.8v-0.4
	c0-0.2,0-0.5-0.1-0.7c-0.2-0.1-0.4-0.2-0.6-0.1h-0.8v1.2h-0.8v-3.4H18.6z M29.4,16.8h1.1v-3.3h-0.8v2.3l-1.4-2.4h-1.2v3.2l-1.3-3.2
	h-1.2l-1.1,2.7h-0.3c-0.2,0-0.4,0-0.5-0.2c-0.2-0.2-0.2-0.5-0.2-0.8s0-0.5,0.2-0.8c0.2-0.1,0.4-0.2,0.6-0.2h0.8v-0.7h-0.8
	c-0.4,0-0.9,0.1-1.2,0.4c-0.6,0.8-0.6,1.8,0,2.6c0.3,0.3,0.7,0.4,1.2,0.4h0.9l0.3-0.7h1.6l0.3,0.7H28v-2.5
	C27.9,14.3,29.4,16.8,29.4,16.8z M16.2,16.1h-1.8v-0.6h1.8v-0.7h-1.8v-0.7h1.8v-0.7h-2.6v3.4h2.6V16.1z M11.7,13.4H13v3.4h-0.8v-2.6
	L11,16.9h-0.7l-1.2-2.7v2.6H7.5l-0.3-0.7H5.5l-0.3,0.7H4.4l1.4-3.4H7l1.3,3.2v-3.2h1.3l1,2.3L11.7,13.4z M21.2,13.4h-0.8v3.4h0.8
	V13.4z M6,15.4l0.6-1.3l0.5,1.3H6z M25.7,15.4l-0.5-1.3l-0.5,1.3H25.7z M18.5,14.9c0.1,0,0.3,0,0.4-0.1s0.2-0.2,0.2-0.3
	s0-0.2-0.2-0.3c-0.1,0-0.3-0.1-0.4-0.1h-1v0.7h1V14.9z M18.4,19.3h-2.5l-1,1.1L14,19.3h-3.2v3.4h3.1l1-1.1l1,1.1h1.5v-1.1h1
	c0.3,0.1,0.7,0,1-0.2c0.3-0.2,0.4-0.6,0.4-0.9s-0.1-0.7-0.4-0.9C19.1,19.4,18.8,19.2,18.4,19.3z M28.4,20.6c0.3,0,0.7,0.1,0.9,0.3
	c0.2,0.2,0.2,0.5,0.2,0.7c0,0.3-0.1,0.6-0.4,0.8c-0.2,0.2-0.6,0.3-0.9,0.2h-1.5v-0.7h1.5c0.1,0,0.2,0,0.3-0.1
	c0.1-0.1,0.1-0.1,0.1-0.2s0-0.2-0.1-0.2c-0.1-0.1-0.2-0.1-0.3-0.1h-0.1c-0.7,0-1.5,0-1.5-1c0-0.3,0.1-0.6,0.3-0.8
	c0.2-0.2,0.5-0.3,0.8-0.2h1.6V20h-1.4c-0.1,0-0.2,0-0.3,0.1c-0.1,0.1-0.1,0.2-0.1,0.3s0.1,0.2,0.2,0.2s0.2,0,0.3,0.1
	C28,20.6,28.4,20.6,28.4,20.6z M32.7,21.6c0,0.3-0.1,0.6-0.4,0.8c-0.2,0.2-0.6,0.3-0.9,0.2h-1.5v-0.7h1.5c0.1,0,0.2,0,0.3-0.1
	c0.1,0,0.1,0,0.1-0.1s0-0.2-0.1-0.2c-0.1-0.1-0.2-0.1-0.3-0.1h-0.1c-0.7,0-1.5,0-1.5-1c0-0.3,0.1-0.6,0.3-0.8
	c0.2-0.2,0.5-0.3,0.8-0.2h1.6v0.7h-1.4c-0.1,0-0.2,0-0.3,0.1c-0.1,0.1-0.1,0.2-0.1,0.3s0.1,0.2,0.2,0.2s0.2,0,0.3,0.1h0.4
	c0.3,0,0.7,0.1,0.9,0.3C32.6,21.1,32.7,21.4,32.7,21.6z M21.9,19.3c0.3,0,0.7,0,1,0.2l0,0c0.3,0.2,0.4,0.5,0.4,0.8
	c0,0.4-0.2,0.7-0.6,0.9c0.2,0.1,0.3,0.2,0.4,0.3c0.1,0.2,0.1,0.4,0.1,0.6v0.7h-0.8v-0.4c0-0.2,0-0.5-0.1-0.7
	c-0.2-0.1-0.4-0.2-0.6-0.2h-0.8v1.2h-0.8v-3.4L21.9,19.3L21.9,19.3z M26.4,22h-1.8v-0.7h1.8v-0.7h-1.8V20h1.8v-0.7h-2.6v3.4h2.6V22z
	 M16.6,19.7L15.4,21l1.2,1.4V19.7z M18.4,20.9h-1V20h1c0.1,0,0.2,0,0.3,0.1c0.1,0.1,0.1,0.2,0.1,0.3s0,0.3-0.1,0.3
	C18.7,20.8,18.6,20.9,18.4,20.9L18.4,20.9z M21.9,20.8c0.1,0,0.3,0,0.4-0.1s0.2-0.2,0.2-0.3s-0.1-0.2-0.2-0.3S22.1,20,21.9,20h-1
	v0.8H21.9L21.9,20.8z M13.5,22h-1.9v-0.7h1.7v-0.7h-1.7V20h2l0.9,1L13.5,22z M3.5,31.3L3.5,31.3C3.4,31.3,3.4,31.3,3.5,31.3
	l-0.2-0.1v0.1H3.5C3.4,31.4,3.4,31.4,3.5,31.3C3.4,31.4,3.5,31.3,3.5,31.3z"/>
</svg>
