<svg xmlns="http://www.w3.org/2000/svg" xmlns:xlink="http://www.w3.org/1999/xlink" width="30" height="30" viewBox="0 0 30 30">
  <defs>
    <rect id="rect-1" width="30" height="30" x="0" y="0"/>
    <mask id="mask-2" maskContentUnits="userSpaceOnUse" maskUnits="userSpaceOnUse">
      <rect width="30" height="30" x="0" y="0" fill="black"/>
      <use fill="white" xlink:href="#rect-1"/>
    </mask>
  </defs>
  <g>
    <use fill="none" xlink:href="#rect-1"/>
    <g mask="url(#mask-2)">
      <path fill="rgb(51,51,51)" fill-rule="evenodd" d="M25.33332825 24.3334961H14v-10h11.33332825v10zM24 15.6665039h-8.66667175V23H24v-7.3334961z"/>
      <path fill="rgb(51,51,51)" fill-rule="evenodd" d="M26.3999939 0H3.6000061L0 6.5v1.63330078c0 1.13330078.53334045 2.10009766 1.33332825 2.76660156V30h27.3333435V10.89990234C29.4666748 10.26660156 30 9.26660156 30 8.13330078V6.5L26.3999939 0zM5.90000916 6L7.4666748 1.3334961H4.40000916L1.80000306 6h4.1000061zm5.63331604 0l.53334045-4.6665039H8.8999939L7.33332825 6h4.19999695zm5.6000061 0h-4.2666626l.53334046-4.6665039h3.19999694L17.1333313 6zm1.3333435 0h4.19999695L21.1000061 1.3334961h-3.16667175L18.4666748 6zm5.6000061 0l-1.53334045-4.6665039h3.06666565L28.2000122 6h-4.1333313zM5.73332215 7.3334961h-4.3999939v.79980468c0 1.20019531 1 2.20019531 2.19999696 2.20019531 1.19999694 0 2.19999694-1 2.19999694-2.2001953v-.7998047zm3.53334046 3c-1.19999695 0-2.19999695-1-2.19999695-2.20019532V7.3334961h4.3999939v.7998047c0 1.2001953-1 2.2001953-2.19999695 2.2001953zm3.53334045-2.20019532c0 1.20019531 1 2.20019531 2.19999695 2.20019531s2.19999695-1 2.19999695-2.2001953v-.7998047h-4.3999939v.7998047zm7.93333435 2.20019531c-1.19999695 0-2.19999695-1-2.19999695-2.2001953v-.7998047h4.3999939v.7998047c0 1.2001953-1 2.2001953-2.19999695 2.2001953zm5.73332215 0c-1.19999695 0-2.19999695-1-2.19999695-2.2001953v-.7998047h4.3999939v.7998047c0 1.2001953-1 2.2001953-2.19999695 2.2001953zM12.3333435 28.6669922h15V11.56689453c-.26667786.06640625-.56666565.10009766-.8666687.10009766-1.16667176 0-2.2333374-.56689453-2.8666687-1.46679688-.6333313.86669922-1.69999695 1.46679688-2.8666687 1.46679688-1.16667176 0-2.23333741-.56689453-2.8666687-1.46679688C17.2333374 11.06689453 16.16667174 11.6669922 15 11.6669922c-1.1666565 0-2.23332214-.56689453-2.8666687-1.46679688-.6333313.86669922-1.69999695 1.46679688-2.86665344 1.46679688-1.16667176 0-2.2333374-.56689453-2.8666687-1.46679688-.6333313.86669922-1.69999695 1.46679688-2.8666687 1.46679688-.30000306 0-.6000061-.0336914-.8666687-.10009766V28.6669922h2v-14.3334961h7.66667175v14.3334961zM6 28.6665039v-13h5v13H6z"/>
    </g>
  </g>
</svg>
