<svg xmlns="http://www.w3.org/2000/svg" xmlns:xlink="http://www.w3.org/1999/xlink" width="45.652" height="30" viewBox="0 0 45.652 30">
  <defs>
    <rect id="rect-1" width="45.652" height="30" x="0" y="0"/>
    <mask id="mask-2" maskContentUnits="userSpaceOnUse" maskUnits="userSpaceOnUse">
      <rect width="45.652" height="30" x="0" y="0" fill="black"/>
      <use fill="white" xlink:href="#rect-1"/>
    </mask>
  </defs>
  <g>
    <use fill="none" xlink:href="#rect-1"/>
    <g mask="url(#mask-2)">
      <path fill="rgb(51,51,51)" fill-rule="evenodd" d="M2.8304125 0h39.99134892c1.4608632 0 2.8304125 1.35147758 2.8304125 2.79275645v24.4144871C45.65217391 28.64852242 44.37393851 30 42.82176141 30H2.8304125C1.3695493 30 0 28.7389606 0 27.20724355V2.79275645C0 1.35147758 1.3695493 0 2.8304125 0zM42.8216818 1.892196H2.83041249c-.5478038 0-.9130594.36047893-.9130594.90119734V5.5861498h41.81738812V2.79339334c0-.5407184-.365176-.90119735-.9130594-.90119735zm.9130594 5.5855129v3.7837551H1.9173531V7.4777089h41.81738812zM2.8304125 28.19824219h39.99126932c.5478834 0 .9130594-.45091712.9130594-.99099864V13.1530231H1.9173531v14.14402174c0 .5407184.3652556.90119735.9130594.90119735z"/>
      <path fill="rgb(51,51,51)" fill-rule="evenodd" d="M33.32607103 15.76617697c.7304316-.36047894 1.9173531-.72095788 2.8304125-.72095788 3.1956681 0 5.7522185 2.43227751 5.7522185 5.67595109 0 3.24303668-2.5565504 5.6753142-5.7522185 5.6753142-.9130594 0-2.0999809-.18023948-2.8304125-.720321-.7304316.35984205-1.9174327.720321-2.83041249.720321-3.1956681 0-5.6609046-2.5227157-5.6609046-5.6753142 0-3.24367358 2.4652365-5.67595109 5.6609046-5.67595109.9129798 0 2.0999809.18023947 2.8304125.72095788zM26.66087275 20.630732c0-2.07179858 1.7348049-3.7837551 3.8347858-3.7837551.36517599 0 .9130594 0 1.36954929.18023947-.7304316.90056046-1.3695493 2.25203805-1.3695493 3.60351563s.5478038 2.61251698 1.3695493 3.60351562c-.365176.18023947-.9130594.18023947-1.3695493.18023947-2.1912948 0-3.83478579-1.71195652-3.83478579-3.7837551zm8.12606148 3.60351562c.4564899.18023947 1.0043733.18023947 1.3695493.18023947 2.09998089 0 3.83478579-1.71195652 3.83478579-3.7837551 0-2.07179857-1.7348049-3.78375509-3.8347858-3.78375509-.45648989 0-1.00429368 0-1.36954929.18023947.8217455.99099864 1.3695493 2.25203805 1.3695493 3.60351563s-.6391177 2.70295516-1.3695493 3.60351562zm-2.3739226-3.60351562c0 .90119735.3652556 1.89219599.9130594 2.43227751.5478038-.54008152.9130594-1.44127887.9130594-2.43227751 0-.90056046-.3652556-1.8915591-.9130594-2.43227752-.5478038.54071841-.9130594 1.53171706-.9130594 2.43227752z"/>
      <path fill="rgb(51,51,51)" fill-rule="evenodd" d="M6.6652174 26.3063063H4.74782608c-.54782609 0-.91304348-.36036035-.91304348-.9009009 0-.54054054.36521739-.9009009.91304348-.9009009h1.9173913c.54782609 0 .91304348.36036036.91304348.9009009 0 .54054055-.3652174.9009009-.91304348.9009009z"/>
      <path fill="rgb(51,51,51)" fill-rule="evenodd" d="M12.32608696 26.3063063h-1.9173913c-.5478261 0-.91304349-.36036035-.91304349-.9009009 0-.54054054.3652174-.9009009.91304348-.9009009h1.9173913c.5478261 0 .91304348.36036036.91304348.9009009 0 .54054055-.27391304.9009009-.91304347.9009009z"/>
      <path fill="rgb(51,51,51)" fill-rule="evenodd" d="M6.66519828 22.52292799h3.8347858c1.4608632 0 2.8304921-1.35147758 2.8304921-2.79275645v-1.892196c0-1.44127887-1.278315-2.79275645-2.8304921-2.79275645h-3.8347858c-1.4608632 0-2.83041249 1.2610394-2.83041249 2.79275645v1.892196c0 1.44127887 1.2782354 2.79275645 2.8304125 2.79275645zm-.9130594-4.68495245c0-.5407184.3652556-.90119735.9130594-.90119735h3.8347858c.5478038 0 .9130594.36047894.9130594.90119735v1.8915591c0 .54071842-.3652556.90119736-.9130594.90119736h-3.8347858c-.5478038 0-.9130594-.36047894-.9130594-.90119735v-1.8915591z"/>
    </g>
  </g>
</svg>
