<svg xmlns="http://www.w3.org/2000/svg" xmlns:xlink="http://www.w3.org/1999/xlink" width="35.938" height="30" viewBox="0 0 35.938 30">
  <defs>
    <rect id="rect-1" width="35.937" height="30" x="0" y="0"/>
    <mask id="mask-2" maskContentUnits="userSpaceOnUse" maskUnits="userSpaceOnUse">
      <rect width="35.938" height="30" x="0" y="0" fill="black"/>
      <use fill="white" xlink:href="#rect-1"/>
    </mask>
  </defs>
  <g>
    <use fill="none" xlink:href="#rect-1"/>
    <g mask="url(#mask-2)">
      <path fill="rgb(51,51,51)" fill-rule="evenodd" d="M35.86336772 6.39709473c.07413228.07375081.07413228.22074381.07413228.36773681v22.13236491c0 .587972-.51867167 1.10270182-1.11147563 1.10270182H1.11147563C.51867167 29.99989827 0 29.48516846 0 28.89719645V6.76483155c0-.146993 0-.29398601.0740687-.44097901.07413229-.14750163.148201-.22074382.22233328-.36773682l5.92784881-5.662028c.2222697-.146993.4445394-.293986.74094137-.293986h21.9329834c.29646555 0 .59274037.146993.88914235.36773682l5.85378011 5.66151937c.07413229.146993.14826457.22074382.2222697.36773682zM28.45363617 2.206014H7.40979513L3.85309855 5.66212972h28.15717062l-3.556633-3.45611572zm5.26091258 25.587972H2.22295125V7.86753337h31.4915975V27.793986zm-22.30345408-6.25h9.1881434c1.5560786 0 2.81569164-1.17645263 2.81569164-2.72013346 0-1.47094727-1.25961304-2.7206421-2.74162293-2.7206421h-6.59472147l1.11147562 1.10270183c.44460297.44148763.44460297 1.10321045 0 1.54418946-.44453938.440979-1.11147562.440979-1.55601501 0l-3.0380249-3.0146281c-.07413229-.07375081-.22233328-.22074381-.22233328-.36773681-.0740687-.146993-.0740687-.293986-.0740687-.36773682 0-.146993 0-.293986.0740687-.36773682.07413229-.146993.148201-.293986.22233328-.36722819l3.0380249-3.01513672c.44453939-.440979 1.11147563-.440979 1.55601501 0 .44460297.44148763.44460297 1.10321045 0 1.54418946l-1.11147562 1.10321045h6.52065277c2.74162292 0 4.96457418 2.20591227 4.96457418 4.92655436 0 2.72013346-2.22295126 4.92604573-4.96457418 4.92604573h-9.18814341c-.59280396 0-1.11147563-.51472981-1.11147563-1.10270182 0-.58848063.51867167-1.10321045 1.11147563-1.10321045z"/>
    </g>
  </g>
</svg>
