<svg xmlns="http://www.w3.org/2000/svg" xmlns:xlink="http://www.w3.org/1999/xlink" width="35" height="33.5" viewBox="0 0 35 33.5">
  <defs>
    <rect id="rect-1" width="35" height="33.5" x="0" y="0"/>
    <mask id="mask-2" maskContentUnits="userSpaceOnUse" maskUnits="userSpaceOnUse">
      <rect width="35" height="33.5" x="0" y="0" fill="black"/>
      <use fill="white" xlink:href="#rect-1"/>
    </mask>
  </defs>
  <g>
    <use fill="none" xlink:href="#rect-1"/>
    <g mask="url(#mask-2)">
      <g>
        <path fill="rgb(51,51,51)" fill-rule="evenodd" d="M23.95506792 24.64249726c-1.85057471 1.8566265-6.553814.1467689-10.50365726-3.81599124-3.94984326-3.96276013-5.65412748-8.68138006-3.80355277-10.53800657l1.91640543-1.9226725c.33646813-.33756846.87774295-.33756846 1.21421108 0l1.96029258 1.96670317c.33646813.33756846.33646813.88061336 0 1.21818182l-1.33124347 1.33559693c-1.03134796 1.0347207-.12434692 3.65454546 2.07001045 5.8634173 2.19435737 2.20887186 4.86415883 3.16286967 5.8955068 2.12814897l1.32392894-1.33559694c.33646813-.33756845.87774294-.33756845 1.21421107 0l1.96029258 1.96670318c.33646813.33756846.33646813.88061336 0 1.21818182l-1.91640543 1.91533406z"/>
        <path fill="rgb(51,51,51)" fill-rule="evenodd" d="M26.71264648 23.4243164c-.16833496.19091798-.3585205.36669923-.53405761.54296876l-1.26098633 1.26513672c-.04492188.07617187-.09997559.14648437-.1652832.20996093-.40234375.38867188-.86315918.66064453-1.3824463.84375-1.03869628.3671875-2.2236328.24951172-3.26965331-.01464844-1.28735352-.3227539-2.5234375-.9243164-3.64990235-1.62890624-2.7355957-1.70996094-5.14208984-4.12451172-6.82446289-6.88378907-.69482422-1.13720703-1.29467773-2.38476562-1.59460449-3.69091797-.241333-1.0493164-.33642578-2.2236328.05126953-3.24365234.29260254-.7631836.80456543-1.2915039 1.36779785-1.8569336.52661133-.5283203 1.03137207-1.17382812 1.65307617-1.59960937.78259278-.53564453 1.79931641-.38867187 2.47229004.2421875.19018555.17626953.36572266.3671875.54858399.55029297.4901123.49169922 1.01672363.96142578 1.47021484 1.48242188.6949463.79248046.64367676 1.9375-.0657959 2.70068359-.20483398.22753906-.43151855.43310547-.64367675.64550781-.22680664.22753906-.45349122.46240234-.68762207.6899414l-.01843262.01757813-.0180664.0336914c-.01049805.0185547-.01879884.03173829-.02526856.04101563l-.00402832.01806641c-.01391602.02783203-.02124024.08300781-.03466797.1196289.00085449.05078126-.00183106.10107422-.0045166.1513672-.00231934.04443359-.00463868.0883789-.00463868.13232421 0 .0444336.00219727.08691407.0053711.12939453-.00952149-.09667968-.0032959.02832032.00915527.09814453.02929688.125.05126953.25683594.08776856.38183594.03662109.13183594.08789062.26416016.13171386.3959961.00598145.02099609.02319336.0673828.0357666.10058593.01782227.04785157.02612305.0703125-.02111816-.04199218.02197266.05908203.05114746.125.08044434.18359375.15356445.33007812.32910156.64599609.52661133.95410156.1755371.26416015.39501953.57958984.53405761.74121094.52661133.62353515 1.08984375 1.20361328 1.7261963 1.70996093.19018554.14648438.54858398.3959961.84851073.57958985.2779541.16894531.56311036.3227539.8557129.46240234l.04003906.01904297.06970215.02490234c.05847167.02197266.12438964.04394532.18286132.06591797.14624024.05126953.29260254.09570313.43884278.13232422.05126953.01464844.1097412.02197266.16821289.0366211.006958 0 .07141113.01123046.11865234.02001953.03552246.0048828.071167.00927734.07885742.00927734.05126953.00732422.102417.00732422.15368653.00732422.07312011 0 .14624023-.00732422.22375488-.00732422.0366211-.00976563.07995605-.02246094.11901855-.03417969l.02294922-.00976562.02246094-.01123047c.02197266-.01708985.04614258-.03564453.0579834-.04736328.45349121-.46972656.90698242-.96142578 1.39709473-1.39453125.78991699-.69726563 1.93103027-.6381836 2.69165039.06591797.17565918.16162109.33654785.33789062.50476074.50634765.48278808.484375.98010254.95410156 1.44824219 1.453125.70959472.7631836.75341796 1.90820313.06591796 2.7006836zm-3.8034668.6459961c-.02575683.01464844-.06640624.04248047-.10864257.06640625-.00939941.00097656-.02185059.00341797-.03771973.00683594-.0657959.01464844-.12426758.04394531-.18286133.05859375-.08776855.02246094-.1755371.0444336-.26330566.05908203l-.05859375.0131836-.0291748.00146484c-.2340088.01464843-.46813965.02197265-.70947266.00732422-.0723877-.0053711-.1484375-.01416016-.22302246-.02148438.06604004.00439453-.0164795-.00830078-.11669922-.0234375-.05578613-.00830078-.11230469-.01660156-.13574219-.02148438-.26330566-.05126953-.5192871-.1171875-.77539062-.1977539-.25598145-.08105469-.5119629-.16894531-.76794434-.26416016-.05126953-.01953125-.10803222-.0444336-.16064453-.0649414l-.08813477-.03808594c-.16088867-.07324219-.31445312-.14648438-.46813964-.22021485-1.22143555-.60888671-2.3479004-1.38671874-3.32067871-2.22314453-.59985352-.51367187-1.16308594-1.0571289-1.7043457-1.62939453-.4827881-.51367187-1.01672364-1.13720703-1.37512208-1.62158203-.40234375-.55078125-.78271484-1.11572265-1.11914062-1.70996094-.15356446-.26416015-.29992676-.54296875-.43151856-.81445312-.05859375-.125-.12438965-.24951172-.1755371-.38183594l-.06652833-.14892578c-.0201416-.0493164-.053833-.13232422-.05786133-.14453125-.20483398-.51367188-.36572265-1.04199219-.46813964-1.58496094-.01464844-.09570312-.05847168-.37451172-.02929688-.11767578-.01452637-.1171875-.0291748-.23486328-.03649902-.359375-.0090332-.14550781-.0041504-.29003906.00109863-.44042969.00317383-.08789062.00622559-.17626953.00622559-.26416015l-.00073243-.0209961.00805664-.03027343c.0218506-.09570313.04382325-.1982422.07312012-.29345703.01452637-.04394532.02905274-.08056641.03637696-.12402344-.01049805.02978515-.02197266.05517578-.02905274.05029297-.00610351-.0029297.01525879-.04833985.04333496-.1015625l.00402832-.0078125c.03967285-.07421875.09057617-.16113282.09887696-.1694336.02197265-.0366211.05126953-.06591797.06591796-.10253906l.01184082-.02392578c.03552247-.03515625.07531739-.06738281.09777832-.08642578l.1463623-.14648438 1.57263185-1.578125.0255127-.02246093c.08154296.0830078.16748046.16503906.24511718.24267578l.8630371.86621093c.15405274.15429688.3125.3623047.48242188.51611328-.22619629.21337891-.43579101.44970704-.65063476.66503907-.19018555.19091797-.39501953.37451172-.57055664.58007812-.4095459.46972657-.59973145 1.02734375-.65100098 1.64355469-.10961914 1.19628906.43164062 2.45117188 1.03869629 3.44921875.82653808 1.37207031 1.95300293 2.5390625 3.23303223 3.49316406 1.67504882 1.2475586 4.3741455 2.48779297 6.12231445.7265625l.84106445-.84423828c.05493164-.0546875.11218262-.10742187.16760254-.1616211.0534668.04931641.11035156.09570313.15429688.13964844l.84118652.84423829c.21118164.21191406.41125488.42919922.62463379.6328125l-.01757813.02001953-.3876953.38916015-.892334.89501953c-.12438964.13964844-.2779541.2866211-.42419433.43310547-.02697754.02246094-.12561035.10302735-.16223144.13671875l-.10839844.06884766z"/>
      </g>
      <path fill="rgb(51,51,51)" fill-rule="evenodd"/>
    </g>
  </g>
</svg>
