<svg xmlns="http://www.w3.org/2000/svg" xmlns:xlink="http://www.w3.org/1999/xlink" width="42.4" height="38.371" viewBox="0 0 42.4 38.371">
  <defs>
    <rect id="rect-1" width="42.4" height="38.371" x="0" y="0"/>
    <mask id="mask-2" maskContentUnits="userSpaceOnUse" maskUnits="userSpaceOnUse">
      <rect width="42.4" height="38.371" x="0" y="0" fill="black"/>
      <use fill="white" xlink:href="#rect-1"/>
    </mask>
  </defs>
  <g>
    <use fill="none" xlink:href="#rect-1"/>
    <g mask="url(#mask-2)">
      <path fill="rgb(79,79,79)" fill-rule="evenodd" d="M31.0901087 33.47297514c-.66860448 0-1.22577489.2247923-1.7829453.78677306-.44573632.4495846-.78003857 1.12396151-.78003857 1.79833842 0 .6743769.22286817 1.23635766.78003857 1.79833842.44573633.4495846 1.11434082.78677306 1.7829453.78677306.6686045 0 1.2257749-.2247923 1.7829453-.78677306.44573633-.4495846.78003858-1.12396151.78003858-1.79833842 0-.6743769-.22286817-1.23635766-.78003857-1.79833842-.55717041-.56198075-1.11434082-.78677306-1.7829453-.78677306z"/>
      <path fill="rgb(79,79,79)" fill-rule="evenodd" d="M15.04360099 33.47297514c-.6686045 0-1.2257749.2247923-1.7829453.78677306-.44573633.4495846-.78003858 1.12396151-.78003858 1.79833842 0 .6743769.22286817 1.23635766.78003857 1.79833842.44573633.4495846 1.11434082.78677306 1.7829453.78677306.6686045 0 1.2257749-.2247923 1.7829453-.78677306.44573633-.4495846.78003858-1.12396151.78003858-1.79833842 0-.6743769-.22286816-1.23635766-.78003857-1.79833842-.5571704-.56198075-1.11434082-.78677306-1.7829453-.78677306z"/>
      <path fill="rgb(79,79,79)" fill-rule="evenodd" d="M34.99030155 12.11770642H10.02906732c0-.11239615-.78003857-3.14709223-.78003857-3.37188454 0-.2247923-.11143408-.4495846-.11143408-.56198075 0-.11239615-.11143408-.33718846-.11143408-.56198076-.11143408-.2247923-.22286816-.33718845-.33430224-.4495846L8.3575561 6.8350873c-.22286816-.11239615-.33430224-.11239615-.5571704-.11239615H0V9.1954065h6.79747896l4.45736326 19.1073457 1.00290673 3.9338653h22.06394812v-2.47271533h-19.7238324l-.6686045-2.58511148 19.94670057-2.47271533c.33430224 0 .5571704-.2247923.78003857-.4495846.22286816-.2247923.33430224-.56198076.33430224-.78677306V12.11770642z"/>
    </g>
  </g>
</svg>
