<?xml version="1.0" encoding="utf-8"?>
<!-- Generator: Adobe Illustrator 24.0.0, SVG Export Plug-In . SVG Version: 6.00 Build 0)  -->
<svg version="1.1" id="Camada_1" xmlns="http://www.w3.org/2000/svg" xmlns:xlink="http://www.w3.org/1999/xlink" x="0px" y="0px"
	 viewBox="0 0 16 16" style="enable-background:new 0 0 16 16;" xml:space="preserve">
<style type="text/css">
	.st0{fill:none;}
	.st1{fill:#020203;filter:url(#Adobe_OpacityMaskFilter);}
	.st2{fill:#FFFFFF;}
	.st3{mask:url(#mask-2_2_);}
	.st4{fill-rule:evenodd;clip-rule:evenodd;fill:#50504F;}
</style>
<g>
	<g>
		<rect id="rect-1_1_" x="0.5" y="-0.2" class="st0" width="16.5" height="14.9"/>
	</g>
	<defs>
		<filter id="Adobe_OpacityMaskFilter" filterUnits="userSpaceOnUse" x="0.5" y="2.4" width="13.6" height="12.4">
			<feColorMatrix  type="matrix" values="1 0 0 0 0  0 1 0 0 0  0 0 1 0 0  0 0 0 1 0"/>
		</filter>
	</defs>
	<mask maskUnits="userSpaceOnUse" x="0.5" y="2.4" width="13.6" height="12.4" id="mask-2_2_">
		<rect x="0.5" y="-0.2" class="st1" width="16.5" height="14.9"/>
		<g>
			<rect id="rect-1_3_" x="0.5" y="-0.2" class="st2" width="16.5" height="14.9"/>
		</g>
	</mask>
	<g class="st3">
		<path class="st4" fill-rule="evenodd" clip-rule="evenodd" fill="#50504F" d="M12.6,12.8c-0.3,0-0.5,0.1-0.7,0.3c-0.2,0.2-0.3,0.4-0.3,0.7s0.1,0.5,0.3,0.7c0.2,0.2,0.4,0.3,0.7,0.3
			c0.3,0,0.5-0.1,0.7-0.3c0.2-0.2,0.3-0.4,0.3-0.7s-0.1-0.5-0.3-0.7C13.1,12.9,12.9,12.8,12.6,12.8z"/>
		<path class="st4" fill-rule="evenodd" clip-rule="evenodd" fill="#50504F" d="M6.3,12.8c-0.3,0-0.5,0.1-0.7,0.3c-0.2,0.2-0.3,0.4-0.3,0.7s0.1,0.5,0.3,0.7c0.2,0.2,0.4,0.3,0.7,0.3
			s0.5-0.1,0.7-0.3c0.2-0.2,0.3-0.4,0.3-0.7S7.3,13.4,7,13.1C6.8,12.9,6.6,12.8,6.3,12.8z"/>
		<path class="st4" fill-rule="evenodd" clip-rule="evenodd" fill="#50504F" d="M14.1,4.5H4.4c0,0-0.3-1.2-0.3-1.3C4.1,3.1,4,3,4,3c0,0,0-0.1,0-0.2c0-0.1-0.1-0.1-0.1-0.2L3.7,2.5
			c-0.1,0-0.1,0-0.2,0h-3v1h2.6l1.7,7.4l0.4,1.5h8.6v-1H6.2l-0.3-1l7.8-1c0.1,0,0.2-0.1,0.3-0.2s0.1-0.2,0.1-0.3
			C14.1,8.9,14.1,4.5,14.1,4.5z"/>
	</g>
</g>
</svg>
