<?xml version="1.0" encoding="utf-8"?>
<!-- Generator: Adobe Illustrator 24.0.0, SVG Export Plug-In . SVG Version: 6.00 Build 0)  -->
<svg version="1.1" id="Camada_1" xmlns="http://www.w3.org/2000/svg" xmlns:xlink="http://www.w3.org/1999/xlink" x="0px" y="0px"
	 viewBox="0 0 37.8 35" style="enable-background:new 0 0 37.8 35;" xml:space="preserve">
<style type="text/css">
	.st0{fill-rule:evenodd;clip-rule:evenodd;fill:#6F6F6F;}
</style>
<path class="st0" d="M7.1,14.4c0.4-0.1,0.8-0.2,1.2-0.2c1.9,0,3.5,1.3,3.8,3.2l2.7-0.6c-0.6-3.1-3.3-5.4-6.5-5.4
	c-0.8,0-1.4,0.1-2.1,0.4C6.3,11.8,7.1,14.4,7.1,14.4z"/>
<path class="st0" d="M4,23.1L5.8,21c-0.8-0.8-1.3-1.8-1.3-3s0.5-2.2,1.3-3L4,12.9c-1.3,1.3-2.2,3.2-2.2,5.2S2.6,21.9,4,23.1"/>
<path class="st0" d="M12.2,18.9c-0.4,1.8-1.9,3.2-3.8,3.2c-0.5,0-0.9-0.1-1.2-0.2l-0.9,2.6c0.7,0.2,1.3,0.4,2.1,0.4
	c3.2,0,5.9-2.3,6.5-5.4L12.2,18.9z"/>
<path class="st0" d="M16.9,20.6c0.1,0.2,0.2,0.4,0.3,0.6l7.3-3.3c0-0.1-0.1-0.2-0.1-0.4c-0.4-1-1-1.6-1.6-2
	c-1.2-0.7-2.5-0.8-3.7-0.3c-1,0.4-1.7,1.2-2.1,2.3C16.4,18.6,16.5,19.6,16.9,20.6z M19.6,16.9c-0.9,0.4-1.3,1.2-1.2,2.2l3.6-1.6
	C21.4,16.7,20.7,16.4,19.6,16.9z M22.5,20.3L22.5,20.3L22.5,20.3c-0.3,0.3-0.7,0.6-1.1,0.8c-0.9,0.4-1.5,0.3-2.1-0.2L19.2,21l0,0
	l-1,1.4c0.2,0.2,0.5,0.3,0.8,0.4c1.1,0.5,2.1,0.4,3.1,0c0.8-0.3,1.3-0.9,1.7-1.4L22.5,20.3L22.5,20.3z"/>
<path class="st0" d="M27,13.2V21l1.2,0.5l-0.7,1.6l-1.3-0.6c-0.3-0.1-0.5-0.3-0.7-0.6c-0.2-0.2-0.3-0.6-0.3-1V13L27,13.2L27,13.2z"
	/>
<path class="st0" d="M30.2,19.1c0-0.7,0.3-1.2,0.8-1.6l-1.2-1.4c-0.9,0.8-1.3,1.8-1.3,3.1c0,1.2,0.5,2.3,1.3,3.1l1.2-1.4
	C30.5,20.3,30.2,19.7,30.2,19.1"/>
<path class="st0" d="M32.4,21.3c-0.3,0-0.5,0-0.7-0.1L31.1,23c0.4,0.1,0.9,0.2,1.2,0.2c1.9,0,3.6-1.4,3.9-3.3l-1.7-0.4
	C34.3,20.5,33.4,21.3,32.4,21.3"/>
<path class="st0" d="M34.4,17.8c0.1,0.2,0.2,0.4,0.3,0.7l1.8-0.4c-0.1-0.4-0.3-0.9-0.5-1.2c-1-1.7-3.1-2.4-4.8-1.7l0.6,1.7
	C32.8,16.5,33.8,16.9,34.4,17.8"/>
</svg>
