<?xml version="1.0" encoding="utf-8"?>
<!-- Generator: Adobe Illustrator 24.0.0, SVG Export Plug-In . SVG Version: 6.00 Build 0)  -->
<svg version="1.1" id="Camada_1" xmlns="http://www.w3.org/2000/svg" xmlns:xlink="http://www.w3.org/1999/xlink" x="0px" y="0px"
	 viewBox="0 0 37.8 35" style="enable-background:new 0 0 37.8 35;" xml:space="preserve">
<style type="text/css">
	.st0{fill:#6F6F6F;}
</style>
<path class="st0" d="M25.1,4c0,1.5,0,2.9,0,4.5c-0.9,0-1.7,0-2.6,0c-1.5,0-2.2,0.7-2.2,2.2c0,0.8,0,1.6,0,2.5c0,0.6,0.2,0.9,0.8,0.8
	c1-0.1,2.1,0,3.1,0c0.2,0,0.5,0,0.8,0c-0.2,1.2-0.3,2.4-0.5,3.6c-0.2,1.3-0.2,1.3-1.5,1.3c-0.7,0-1.3,0-2,0
	c-0.6-0.1-0.8,0.2-0.8,0.8c0,3.6,0,7.1,0,10.7c0,0.3,0,0.6,0,0.9c-1.6,0-3.2,0-4.8,0c0-0.3-0.1-0.6-0.1-0.9c0-3.5,0-6.9,0-10.4
	c0-1.2,0.1-1.1-1.1-1.1c-1,0-1.9,0-3,0c0-1.6,0-3.2,0-4.9c1.1,0,2.1,0,3.2,0c0.7,0,0.9-0.2,0.9-0.9c0-1.4-0.1-2.8,0.1-4.2
	c0.2-2.4,1.9-4.2,4.4-4.8c0.1,0,0.2-0.1,0.4-0.2C21.9,4,23.5,4,25.1,4z"/>
</svg>
