<svg width="45" height="20" viewBox="0 0 45 20" fill="none" xmlns="http://www.w3.org/2000/svg">
<g clip-path="url(#clip0_115_504)">
<path d="M12.3552 0H7.69317C5.63217 0.0992647 3.94917 0.946691 3.46317 2.69485C3.20937 3.60662 3.07077 4.60662 2.87097 5.55147C1.86297 10.3548 0.968371 15.2923 0.00537109 20H36.306C39.1121 20 41.0399 19.3952 41.5601 17.1195C41.8013 16.0625 42.0336 14.8658 42.2657 13.7059C43.1675 9.17831 44.0711 4.65257 44.9945 0H12.3552V0Z" fill="#4E4E4E"/>
<path d="M11.9916 7.10854C12.186 6.97067 12.438 6.34567 12.15 6.08648C12.06 6.00376 11.907 5.97987 11.6946 6.01663C11.4984 6.04972 11.385 6.11957 11.3076 6.22619C11.1834 6.39715 11.07 6.91553 11.2626 7.10854C11.4498 7.29604 11.8674 7.19494 11.9916 7.10854ZM9.21596 6.08648C9.07556 7.01295 8.91896 7.92104 8.76056 8.82729C7.74716 8.83832 6.71216 8.87876 5.73476 8.8034C5.92016 7.91553 6.05156 6.97435 6.23516 6.08648H5.14256C4.75196 8.35119 4.39556 10.6508 3.95996 12.8696H5.07596C5.25056 11.7317 5.41436 10.5828 5.64476 9.50193C6.59516 9.47803 7.73456 9.43575 8.64716 9.52582C8.45816 10.6508 8.23136 11.7335 8.05496 12.8714H9.16916C9.52736 10.5736 9.90536 8.29604 10.3518 6.08832H9.21596V6.08648ZM24.9786 8.03685C24.111 7.6784 23.4288 8.28317 23.1138 8.84935C23.1858 8.59751 23.2146 8.30156 23.274 8.03685H22.41C22.1994 9.70965 21.888 11.2813 21.591 12.8677H22.5684C22.7052 11.9266 22.7646 10.6563 23.0688 9.7556C23.3118 9.03501 23.9472 8.42288 24.8652 8.75744C24.8778 8.4909 24.9534 8.28869 24.9786 8.03685ZM25.5258 11.7299C25.4358 11.4927 25.4124 11.0994 25.4358 10.7997C25.4862 10.1288 25.7256 9.31075 26.0946 8.94126C26.604 8.43023 27.612 8.51479 28.4148 8.80156C28.44 8.52582 28.494 8.27766 28.5282 8.01112C27.2106 7.79053 25.9614 7.9284 25.299 8.63795C24.651 9.33281 24.2244 10.9302 24.525 11.9357C24.876 13.1122 26.4546 13.1766 27.7326 12.7262C27.7884 12.4891 27.819 12.2262 27.8694 11.9835C27.1692 12.3567 25.8354 12.5497 25.5258 11.7299ZM36.5112 8.06075C35.6472 7.61957 34.9272 8.36038 34.6464 8.8034C34.7256 8.57545 34.731 8.27031 34.8048 8.03685H33.9408C33.7086 9.69678 33.426 11.3052 33.1002 12.8677H34.101C34.1064 12.228 34.2306 11.7538 34.3278 11.1251C34.5366 9.78318 34.8444 8.31442 36.3744 8.7556C36.4248 8.53134 36.4464 8.27398 36.5112 8.06075ZM10.9908 8.03685C10.9638 8.04053 10.9656 8.07362 10.9674 8.1067C10.7514 9.75192 10.4598 11.3218 10.1484 12.8677H11.1258C11.3616 11.2115 11.6298 9.58832 11.9682 8.03685H10.9908ZM19.5894 7.94494C18.882 8.00009 18.2844 8.20781 17.8614 8.66553C17.3412 9.22619 16.9182 10.4652 17.0424 11.592C17.2188 13.2005 19.1808 13.1435 20.7504 12.7538C20.7774 12.4707 20.844 12.2299 20.8872 11.9633C20.241 12.2096 19.1178 12.5552 18.4536 12.1269C17.9514 11.8034 17.9478 10.9817 18.1116 10.2685C19.1664 10.2335 20.2626 10.2409 21.3192 10.2685C21.3858 9.76295 21.5784 9.21148 21.411 8.71148C21.186 8.05156 20.394 7.8806 19.5894 7.94494ZM20.5218 9.70965H18.225C18.297 9.17104 18.7722 8.57729 19.521 8.54788C20.2248 8.52031 20.7288 8.81259 20.5218 9.70965ZM15.8814 8.03685C15.0534 7.71884 14.0454 8.09751 13.608 8.45965C13.6098 8.47619 13.5972 8.47803 13.5846 8.47803C13.5918 8.47251 13.6008 8.46516 13.608 8.45965C13.608 8.45781 13.608 8.45781 13.608 8.45597C13.6152 8.30156 13.6692 8.1931 13.6764 8.03869H12.834C12.483 10.421 12.0672 12.7372 11.628 15.0313H12.6054C12.7476 14.138 12.8412 13.1968 13.0374 12.3604C13.2606 13.2391 14.7186 13.0718 15.3342 12.7317C16.605 12.0277 17.5842 8.69126 15.8814 8.03685ZM15.1074 11.9633C14.5836 12.5295 13.2984 12.5203 13.1976 11.5681C13.1544 11.1545 13.3056 10.7188 13.3794 10.2905C13.455 9.8567 13.509 9.43942 13.5846 9.05891C14.0994 8.41553 15.615 8.33832 15.768 9.40817C15.9012 10.3365 15.5412 11.4946 15.1074 11.9633ZM40.1508 5.94678C40.0662 6.69678 39.9546 7.4192 39.8106 8.1067C37.4112 7.33097 35.9406 9.13428 35.9658 11.3585C35.9712 11.7887 36.0432 12.2152 36.306 12.5203C36.7596 13.0442 38.061 13.171 38.718 12.7299C38.8458 12.6453 38.9754 12.4891 39.0582 12.3824C39.1212 12.3016 39.222 12.0883 39.24 12.1508C39.2058 12.3861 39.1536 12.6049 39.15 12.8714H40.0374C40.2084 10.3677 40.7376 8.22803 41.13 5.94862L40.1508 5.94678ZM37.9674 12.3346C37.3086 12.3494 36.981 11.9321 36.9666 11.2427C36.9396 10.035 37.4598 8.69126 38.5128 8.57178C39.0042 8.51663 39.3588 8.63244 39.7188 8.75744C39.3876 10.1141 39.5082 12.3016 37.9674 12.3346ZM29.529 8.03685C29.4804 8.31259 29.4066 8.56259 29.3472 8.82729C29.925 8.68023 31.7214 8.22619 31.8942 9.01295C31.9518 9.27398 31.8528 9.55156 31.7808 9.7556C30.1554 9.59751 28.8306 9.87325 28.4832 11.0571C28.2492 11.8494 28.5102 12.6288 29.007 12.8457C29.9646 13.2648 31.1292 12.785 31.5324 12.1251C31.491 12.353 31.4514 12.5846 31.464 12.8677H32.3046C32.3136 12.0442 32.4306 11.3788 32.5548 10.638C32.661 10.0074 32.859 9.38244 32.8284 8.82545C32.7546 7.55156 30.6864 8.00376 29.529 8.03685ZM31.1202 11.9394C30.6162 12.4431 29.2014 12.5865 29.3454 11.3824C29.466 10.3824 30.5316 10.1692 31.6872 10.3144C31.6026 10.8604 31.5054 11.5552 31.1202 11.9394Z" fill="white"/>
</g>
<defs>
<clipPath id="clip0_115_504">
<rect width="45" height="20" fill="white"/>
</clipPath>
</defs>
</svg>
