<?xml version="1.0" encoding="utf-8"?>
<!-- Generator: Adobe Illustrator 24.0.0, SVG Export Plug-In . SVG Version: 6.00 Build 0)  -->
<svg version="1.1" id="Camada_1" xmlns="http://www.w3.org/2000/svg" xmlns:xlink="http://www.w3.org/1999/xlink" x="0px" y="0px"
	 viewBox="0 0 37.8 35" style="enable-background:new 0 0 37.8 35;" xml:space="preserve">
<style type="text/css">
	.st0{fill-rule:evenodd;clip-rule:evenodd;fill:#6F6F6F;}
</style>
<path class="st0" d="M10.7,9.2H6.8c-1.6,0-3,0.8-3.4,2.1c-0.2,0.7-0.3,1.5-0.5,2.3C2.1,17.3,1.4,21.3,0.5,25h29.7
	c2.3,0,3.8-0.4,4.2-2.3c0.2-0.9,0.3-1.7,0.7-2.7c0.7-3.6,1.5-7.1,2.2-10.8L10.7,9.2L10.7,9.2z M33.4,19.3h-0.7c0-0.2,0-0.3,0.1-0.5
	c-0.1,0.1-0.1,0.1-0.2,0.2c-0.1,0.1-0.2,0.2-0.2,0.2c-0.7,0.3-1.4,0.2-2.1-0.2c-0.2-0.2-0.2-0.7-0.2-0.9c0-1.7,1.2-3.2,3.2-2.5
	c0.1-0.5,0.2-1.1,0.2-1.6h0.8C33.8,15.6,33.5,17.5,33.4,19.3L33.4,19.3L33.4,19.3z M10.2,13.9c-0.1,0-0.2,0.1-0.3,0.2
	c-0.2,0.2-0.2,0.4,0,0.7c0.2,0.1,0.4,0.1,0.7,0c0.2-0.2,0.2-0.5,0.1-0.8C10.4,13.9,10.4,13.9,10.2,13.9z M7.2,19.3
	c0.2-0.9,0.3-1.7,0.5-2.6c-0.8-0.1-1.6-0.1-2.5,0c-0.2,0.9-0.3,1.7-0.4,2.6H4c0.3-1.7,0.7-3.6,1-5.3h0.9c-0.2,0.7-0.2,1.4-0.4,2.1
	c0.7,0.1,1.3,0,2.1,0c0.2,0,0.3,0,0.5,0c0.1-0.7,0.2-1.4,0.3-2.2h0.9c-0.3,1.7-0.7,3.5-1,5.3L7.2,19.3L7.2,19.3z M20.7,18.5
	c0.2,1,1.6,1,2.6,0.7l0,0c0.1-0.2,0.1-0.4,0.1-0.7c-0.5,0.2-1.6,0.4-2-0.2c-0.1-0.2-0.1-0.5-0.1-0.7c0-0.5,0.2-1.1,0.5-1.5
	c0.7-0.3,1.3-0.4,2-0.1c0-0.2,0.1-0.4,0.1-0.7c-0.9-0.3-2-0.2-2.6,0.5C20.6,16.7,20.3,17.7,20.7,18.5z M15.4,17.2c0.9,0,1.7,0,2.6,0
	l0,0c0.1-0.4,0.2-0.8,0.1-1.2c-0.3-0.5-0.9-0.8-1.5-0.7c-0.5,0-1.1,0.2-1.4,0.5c-0.5,0.7-0.8,1.5-0.7,2.3c0.2,1.2,1.7,1.2,3,0.9
	c0-0.2,0.1-0.4,0.1-0.7c-0.7,0.3-1.3,0.3-2.1,0.1C15.4,18.3,15.3,17.8,15.4,17.2z M13.1,19.2c-0.5,0.2-1.6,0.4-1.8-0.2
	C11,19.6,11,20.4,10.9,21h-0.8c0.3-1.8,0.7-3.6,1-5.5h0.7c0,0.1-0.1,0.2-0.1,0.3c0.5-0.3,1.2-0.5,1.8-0.3
	C14.9,16,14.2,18.7,13.1,19.2L13.1,19.2L13.1,19.2z M27.2,17.6c-0.1,0.7-0.2,1.1-0.2,1.7h-0.7c0-0.2,0-0.4,0.1-0.7
	c-0.5,0.7-1.3,0.9-2.1,0.5c-0.4-0.3-0.7-0.9-0.4-1.4c0.2-1,1.4-1.1,2.7-1.1c0.1-0.2,0.1-0.3,0.1-0.7c-0.2-0.7-1.6-0.2-2.1-0.2
	c0.1-0.2,0.1-0.4,0.2-0.7c0.2,0,0.3,0,0.7,0c1-0.1,2.1-0.2,2.1,0.7C27.4,16.6,27.3,17,27.2,17.6L27.2,17.6z M19.4,16.9
	c-0.2,0.8-0.3,1.6-0.4,2.5h-0.8c0.2-1.2,0.5-2.5,0.7-3.8h0.7c-0.1,0.2-0.1,0.4-0.1,0.7c0.2-0.7,1-0.9,1.5-0.7c0,0.2-0.1,0.3-0.1,0.5
	c-0.1-0.1-0.5-0.1-0.8,0C19.7,16.3,19.5,16.5,19.4,16.9L19.4,16.9L19.4,16.9z M28.4,19.3c0-0.4,0.1-1,0.2-1.4l0,0
	c0.2-1.1,0.4-2.2,1.6-1.8c0.1-0.2,0.1-0.3,0.1-0.5c-0.7-0.2-1.2,0-1.5,0.7c0.1-0.2,0.1-0.4,0.1-0.7h-0.7c-0.2,1.3-0.4,2.5-0.7,3.8
	C27.5,19.3,28.4,19.3,28.4,19.3z M9.5,15.6c-0.2,1.3-0.4,2.5-0.7,3.8h0.8c0.2-1.3,0.4-2.5,0.7-3.8H9.5C9.5,15.5,9.5,15.6,9.5,15.6z
	 M16.6,15.9c-0.5,0-1,0.4-1.1,0.9h1.8C17.5,16,17.1,15.9,16.6,15.9z M30.8,18c0-1,0.4-2.1,1.2-2.1l0,0c0.3,0,0.7,0,1,0.2
	c-0.2,1.1-0.2,2.8-1.4,2.8c-0.2,0-0.4-0.1-0.7-0.2C30.8,18.4,30.8,18.2,30.8,18z M11.6,17.3c0.1-0.3,0.1-0.7,0.2-1
	c0.4-0.5,1.6-0.7,1.7,0.2c0.1,0.7-0.1,1.4-0.5,2.1c-0.4,0.4-1.5,0.4-1.6-0.3C11.4,17.9,11.5,17.6,11.6,17.3z M24.6,18.1
	c-0.1,1,1.1,0.9,1.5,0.4c0.2-0.3,0.4-0.8,0.4-1.3C25.6,17.1,24.7,17.3,24.6,18.1z"/>
</svg>
