<?xml version="1.0" encoding="utf-8"?>
<!-- Generator: Adobe Illustrator 24.0.0, SVG Export Plug-In . SVG Version: 6.00 Build 0)  -->
<svg version="1.1" id="Camada_1" xmlns="http://www.w3.org/2000/svg" xmlns:xlink="http://www.w3.org/1999/xlink" x="0px" y="0px"
	 viewBox="0 0 37.8 35" style="enable-background:new 0 0 37.8 35;" xml:space="preserve">
<style type="text/css">
	.st0{fill:#6F6F6F;}
</style>
<g>
	<path class="st0" d="M13.9,3.8c3.3,0,6.6,0,9.9,0c0.4,0.1,0.7,0.2,1.1,0.2c4,0.2,6.8,2.7,7.3,6.7c0.2,1.8,0.2,3.7,0.2,5.6
		c0,0.3,0.1,0.6,0.1,0.9c0,0.2,0,0.4,0,0.6c0,0.3-0.1,0.6-0.1,0.9c-0.1,2,0,3.9-0.2,5.8c-0.4,3.9-3.2,6.5-7.1,6.7
		c-4.2,0.1-8.4,0.1-12.5,0C8.5,31,5.5,28,5.4,24c-0.1-4.1-0.1-8.3,0-12.5C5.6,7.4,7.8,4.6,12,4C12.6,3.9,13.3,3.9,13.9,3.8z
		 M18.9,6.3C18.9,6.2,18.9,6.2,18.9,6.3c-1.2,0-2.3-0.1-3.5,0c-1.2,0.1-2.4,0.1-3.6,0.3C9.7,6.9,8.3,8.3,8,10.4
		c-0.2,1.5-0.3,3-0.4,4.5c0,2.7,0,5.5,0.1,8.3c0.1,1.1,0.3,2.3,0.8,3.3c0.9,1.8,2.7,2.4,4.6,2.5c3.2,0.1,6.5,0.1,9.7,0.1
		c1.1,0,2.1-0.1,3.1-0.3c2.1-0.4,3.4-1.7,3.8-3.8c0.2-1,0.3-2,0.3-3c0-3.3,0-6.5-0.1-9.8c0-1.5-0.3-2.9-1.3-4
		c-1.2-1.3-2.8-1.7-4.4-1.7C22.5,6.2,20.7,6.3,18.9,6.3z"/>
	<path class="st0" d="M25.8,17.6c0.2,3.6-2.9,7.1-6.9,7c-3.9,0-7.1-3.2-7-7.1c0.1-3.9,3.1-6.9,7-7C22.6,10.5,26,13.8,25.8,17.6z
		 M14.3,17.6c0,2.6,2,4.6,4.6,4.7c2.5,0,4.6-2.1,4.6-4.6c0-2.6-2-4.6-4.5-4.7C16.4,12.9,14.3,14.9,14.3,17.6z"/>
	<path class="st0" d="M27.8,10.2c0,0.9-0.7,1.6-1.6,1.6c-0.9,0-1.6-0.7-1.6-1.6c0-0.9,0.7-1.6,1.7-1.6C27.1,8.6,27.8,9.3,27.8,10.2z
		"/>
</g>
</svg>
