<?xml version="1.0" encoding="utf-8"?>
<!-- Generator: Adobe Illustrator 24.0.0, SVG Export Plug-In . SVG Version: 6.00 Build 0)  -->
<svg version="1.1" id="Camada_1" xmlns="http://www.w3.org/2000/svg" xmlns:xlink="http://www.w3.org/1999/xlink" x="0px" y="0px"
	 viewBox="0 0 266.4 179.1" style="enable-background:new 0 0 266.4 179.1;" xml:space="preserve">
<style type="text/css">
	.st0{fill:#4F4E4E;}
</style>
<path class="st0" d="M33.4,85C21.7,85,7.2,78.3,7.2,62.9V39.8c0-15.4,14.6-22.1,26.2-22.1c12.1,0,24.2,6.2,25.4,18.6
	c0,2.3-0.8,2.8-3,2.8h-9.4c-2.1,0-2.2-1.9-2.9-3c-2.1-3.2-4.8-4.7-10.1-4.7c-6.5,0-10.9,3.6-10.9,9.8v20.4c0,6.3,4.4,9.8,10.9,9.8
	c5.3,0,9.5-2,10.3-6.7c0.3-2,0.5-3.5,2.6-3.5h9.6c2.2,0,2.9,1,2.9,3.3C58.8,77.1,45.5,85,33.4,85"/>
<path class="st0" d="M126.6,64.8c0,12.4-9.7,18.8-23.3,18.8H74.5c-2.3,0-2.8-1.1-2.8-2.8V22c0-1.8,0.6-2.8,2.8-2.8h27.4
	c16,0,22.8,8.5,22.8,17.7c0,9.9-6.3,13-7.1,13.4C118.4,50.5,126.6,54.3,126.6,64.8 M111,63.4c0-4.6-3.4-6-8.1-6h-2.3
	c-2.3,0-2.8-1.1-2.8-2.8v-7.4c0-1.8,0.6-2.8,2.8-2.8h1.3c5.7,0,8.1-2.1,8.1-5.9c0-4.4-3-5.5-8.1-5.5H87.1v36.8h16.4
	C108.3,69.7,111,67.8,111,63.4"/>
<path class="st0" d="M189.6,21.9l-20.2,37.5v21.3c0,2.3-1.1,2.8-2.8,2.8h-9.8c-1.9,0-2.8-0.6-2.8-2.8V59.4L133,21.9
	c-0.5-1.1-0.3-2.7,1.6-2.7h11.3c2.2,0,3.2,0.3,4.6,2.9l11.5,21l11.1-21c1.3-2.6,2.3-2.9,4.5-2.9H188
	C189.9,19.2,190.1,20.8,189.6,21.9"/>
<path class="st0" d="M252.1,80.5l-21-34.6l15.7-16.7c0,0,0,0,0,0h0l0-10.1h-10.3l0,0v0c-0.2,0.2-22.7,24.8-22.7,24.8V22.1
	c0-2.2-1.1-2.8-2.7-2.8h-9.7c-1.9,0-2.8,0.6-2.8,2.8v58.7c0,2.3,1,2.8,2.8,2.8h9.7c1.7,0,2.7-0.6,2.7-2.8V63.4l6.1-6.4
	c5.3,8.8,14,23.5,14,23.5c1.3,2.1,2.5,3.1,4.9,3.1h11.9C252.5,83.6,252.9,81.8,252.1,80.5"/>
<polygon class="st0" points="260.8,31.4 253.9,31.4 253.9,12.2 234.7,12.2 234.7,5.2 260.8,5.2 "/>
<path class="st0" d="M20,166.8c-4.1-2.6-7.2-6.2-9.4-11c-2.2-4.8-3.3-10.4-3.3-16.9c0-6.5,1.1-12.2,3.3-17c2.2-4.8,5.3-8.5,9.4-11
	c4.1-2.6,8.9-3.8,14.5-3.8c5.6,0,10.4,1.3,14.6,3.8c4.1,2.6,7.3,6.2,9.4,11c2.2,4.8,3.3,10.4,3.3,16.9s-1.1,12.2-3.3,17
	c-2.2,4.8-5.4,8.5-9.4,11c-4.1,2.6-8.9,3.8-14.5,3.8C28.9,170.6,24.1,169.3,20,166.8 M51.6,159.6c4.1-4.9,6.1-11.9,6.1-20.8
	c0-8.9-2-15.9-6-20.8c-4-4.9-9.8-7.4-17.2-7.4c-7.4,0-13.1,2.5-17.1,7.4c-4.1,4.9-6.1,11.8-6.1,20.8c0,8.9,2,15.9,6.1,20.8
	c4.1,4.9,9.8,7.4,17.1,7.4C41.8,167,47.5,164.5,51.6,159.6"/>
<path class="st0" d="M125.1,109.8v58.7c0,0.6-0.2,1.1-0.5,1.4c-0.3,0.4-0.8,0.6-1.4,0.6c-0.4,0-0.7-0.1-1-0.3
	c-0.2-0.2-0.5-0.5-0.8-0.9l-40.4-55v54.1c0,0.6-0.2,1.1-0.5,1.4c-0.3,0.4-0.7,0.6-1.3,0.6c-1.1,0-1.7-0.7-1.7-2v-58.7
	c0-0.6,0.2-1.1,0.5-1.4c0.3-0.4,0.8-0.6,1.4-0.6c0.4,0,0.7,0.1,0.9,0.2c0.2,0.1,0.5,0.4,0.8,0.8l40.3,55v-54c0-0.6,0.2-1.1,0.5-1.4
	c0.3-0.4,0.7-0.6,1.3-0.6C124.5,107.8,125.1,108.5,125.1,109.8"/>
<path class="st0" d="M191.6,109.8v58.7c0,0.6-0.2,1.1-0.5,1.4c-0.3,0.4-0.8,0.6-1.4,0.6c-0.4,0-0.7-0.1-1-0.3
	c-0.2-0.2-0.5-0.5-0.8-0.9l-40.4-55v54.1c0,0.6-0.2,1.1-0.5,1.4c-0.3,0.4-0.7,0.6-1.3,0.6c-1.1,0-1.7-0.7-1.7-2v-58.7
	c0-0.6,0.2-1.1,0.5-1.4c0.3-0.4,0.8-0.6,1.4-0.6c0.4,0,0.7,0.1,0.9,0.2c0.2,0.1,0.5,0.4,0.8,0.8l40.3,55v-54c0-0.6,0.2-1.1,0.5-1.4
	c0.3-0.4,0.7-0.6,1.3-0.6C191.1,107.8,191.6,108.5,191.6,109.8"/>
<path class="st0" d="M259,160.5c0.4,0.5,0.7,1,0.7,1.6c0,0.9-0.3,1.7-1,2.5c-0.7,0.8-1.8,1.8-3.5,2.8c-6.3,3.7-12.7,5.6-19.4,5.6
	c-9.5,0-16.9-2.9-22.4-8.7c-5.4-5.8-8.2-13.8-8.2-24c0-6.5,1.2-12.3,3.7-17.2c2.4-5,5.9-8.8,10.3-11.6c4.4-2.7,9.5-4.1,15.3-4.1
	c8,0,14.3,2.6,18.9,7.8c4.6,5.2,6.9,12.4,6.9,21.4c0,1.6-0.3,2.7-0.9,3.4c-0.6,0.7-1.7,1-3.3,1h-44.9c0.1,8.5,2.2,15.1,6.5,19.7
	c4.2,4.6,10.2,6.9,17.8,6.9c4.2,0,7.6-0.6,10.4-1.7c2.7-1.1,5.4-2.6,8-4.4c1.8-1.2,3-1.8,3.5-1.8C258.1,159.8,258.6,160,259,160.5
	 M218.5,118.7c-4,4.1-6.4,9.9-7.1,17.3h43.7c-0.2-7.6-2-13.4-5.6-17.4c-3.6-4-8.6-6.1-15-6.1C227.9,112.5,222.5,114.6,218.5,118.7"
	/>
</svg>
