<svg xmlns="http://www.w3.org/2000/svg" xmlns:xlink="http://www.w3.org/1999/xlink" width="197" height="54" viewBox="0 0 197 54">
  <defs>
    <rect id="rect-1" width="197" height="54" x="0" y="0"/>
    <mask id="mask-2" maskContentUnits="userSpaceOnUse" maskUnits="userSpaceOnUse">
      <rect width="197" height="54" x="0" y="0" fill="black"/>
      <use fill="white" xlink:href="#rect-1"/>
    </mask>
  </defs>
  <g>
    <use fill="none" xlink:href="#rect-1"/>
    <g mask="url(#mask-2)">
      <path fill="rgb(0,0,0)" fill-rule="evenodd" d="M64.20474243 36.46245125c-.8627777-.85375595-1.86933899-1.52964401-3.12754822-1.9565239-1.25822448-.46244811-2.62428283-.67588805-4.13412475-.640316-1.47390747 0-2.94781494.21343994-4.349823.640316-1.40200806.46245194-2.696167 1.10276795-3.8465271 1.9565239-1.18632507.85375214-2.15693665 1.92094422-2.98376465 3.166008-.826828 1.28063202-1.36605835 2.70355224-1.68959045 4.3754959-.32354737 1.67193604-.32354737 3.13043214.03593445 4.37548829.32354736 1.24506378.93467712 2.31225586 1.76150512 3.166008.826828.85375976 1.869339 1.49407196 3.12754822 1.88537597 1.25820923.39130402 2.62426758.60474396 4.13412476.60474396 1.50985717 0 2.94781494-.21343994 4.349823-.60474396 1.40200805-.39130401 2.69616699-1.0316162 3.8465271-1.88537597 1.18632507-.85375214 2.15693664-1.92094422 2.98376464-3.166008.826828-1.24505615 1.36605835-2.70355225 1.68960572-4.37548828.3235321-1.67194367.3235321-3.13043976-.03594971-4.37549591-.32354736-1.24506378-.93467713-2.31225586-1.76150513-3.166008zm-12.43832397 3.41501618c.64707946-.46244812 1.29415893-.81817627 2.04908752-1.06719208.75492859-.24900818 1.50985718-.39130402 2.26478577-.39130402s1.47390747.14229584 2.12098694.39130402c.64707946.2490158 1.18630981.60474396 1.61769104 1.06719208.43139648.46245575.75492859 1.03162384.93467712 1.74308777.17974854.67588806.21569824 1.45849609.0359497 2.3478241-.17974853.85375213-.50328063 1.67193603-.93467712 2.34782409-.43138122.71146393-.97061157 1.28063202-1.58174133 1.74308777-.64707947.46244812-1.2941742.81817627-2.04908752 1.06719207-.71897889.28458405-1.47390747.39130402-2.26478577.39130402-.75492859 0-1.47390747-.14229584-2.12098694-.39130402-.64707947-.2490158-1.18630981-.60474395-1.6177063-1.06719207-.43138122-.46245575-.75492859-1.06719971-.93466186-1.74308777-.17974854-.67588806-.21569825-1.4584961-.03594971-2.3478241.17973328-.85375976.50328064-1.67193603.93466187-2.3478241.43139648-.71146392.97062683-1.28063201 1.58175659-1.74308776z"/>
      <path fill="rgb(0,0,0)" fill-rule="evenodd" d="M195.27445255 42.86561265c-.61113138-.42687747-1.29416058-.7826087-2.1209854-.99604743-.82682481-.21343874-1.68959854-.39130435-2.58832116-.53359684-.89872263-.1422925-1.76149635-.21343874-2.62427008-.28458498-.86277372-.07114625-1.61770073-.1422925-2.26478102-.24901186-.6470803-.10671937-1.18631387-.24901186-1.54580292-.4624506-.39543796-.21343873-.53923358-.53359683-.46733577-.9604743s.46733577-.81818182 1.15036497-1.20948617c.6830292-.39130434 1.79744525-.56916996 3.30729927-.56916996.82682482 0 1.65364963.07114625 2.48047445.17786562.07189781 0 .14379562.03557312.21569343.03557312 2.40857664.3201581 4.81715329 0 6.18321168-2.45454546-.21569343-.03557312-.46733577-.10671936-.754927-.21343873-.50328468-.17786561-1.15036497-.35573123-1.90529198-.53359684-.754927-.21343873-1.65364963-.39130435-2.62427007-.53359684-1.00656934-.1778656-2.0850365-.24901185-3.30729927-.24901185-1.29416059 0-2.48047445.14229249-3.59489051.46245059s-2.0850365.74703557-2.94781022 1.31620553c-.82682482.56916996-1.54580292 1.20948617-2.0850365 1.99209486-.57518248.7826087-.93467153 1.63636364-1.11441606 2.59683795-.21569343 1.20948616-.0359489 2.16996047.53923358 2.8458498.57518248.67588933 1.3660584 1.20948617 2.40857664 1.5652174 1.00656935.35573122 2.1209854.60474308 3.34324818.74703557 1.22226277.14229249 2.33667883.24901185 3.41514598.39130434 1.04251825.10671937 1.94124088.24901186 2.58832117.4624506.6830292.1778656.97062044.49802371.89872263.9604743-.14379562.81818182-.6830292 1.45849803-1.58175183 1.8853755-.89872262.42687747-2.22883211.67588933-3.99032846.67588933-.89872263 0-1.79744526-.10671937-2.66021898-.28458498-.0359489 0 0 0 0 0-2.58832117-.35573123-5.53613139.03557312-6.83029197 2.95256917.17974452.03557312.43138686.10671936.7189781.24901185.39543796.17786562.97062044.35573123 1.65364964.56916996.7189781.21343874 1.58175182.39130435 2.62427007.53359684 1.04251825.1422925 2.30072993.21343874 3.77463504.21343874 1.90529197 0 3.5229927-.17786562 4.85310218-.56916996 1.3660584-.39130435 2.48047446-.88932807 3.34324818-1.52964427.89872263-.6403162 1.54580292-1.35177866 2.01313869-2.16996048.46733576-.81818181.7908759-1.63636363.93467153-2.45454545.21569343-1.06719368.17974452-1.99209486-.14379562-2.70355731-.25164234-.67588933-.6830292-1.2450593-1.29416059-1.67193676"/>
      <path fill="rgb(0,0,0)" fill-rule="evenodd" d="M18.51368613 42.86561265c-.61113139-.42687747-1.29416058-.7826087-2.1209854-.99604743-.82682482-.21343874-1.68959854-.39130435-2.58832117-.53359684-.89872263-.1422925-1.76149635-.21343874-2.62427007-.28458498-.86277372-.07114625-1.61770073-.1422925-2.26478102-.24901186-.6470803-.10671937-1.18631387-.24901186-1.54580292-.4624506-.39543796-.21343873-.53923358-.53359683-.46733577-.9604743s.46733577-.81818182 1.15036496-1.20948617c.6830292-.39130434 1.79744526-.56916996 3.30729927-.56916996.82682482 0 1.65364964.07114625 2.48047446.17786562.0718978 0 .14379562.03557312.21569343.03557312 2.40857664.3201581 4.81715328 0 6.18321168-2.45454546-.21569343-.03557312-.46733577-.10671936-.75492701-.21343873-.50328467-.17786561-1.15036496-.35573123-1.90529197-.53359684-.754927-.21343873-1.65364964-.39130435-2.62427007-.53359684-1.00656935-.1778656-2.0850365-.24901185-3.30729927-.24901185-1.29416059 0-2.48047446.14229249-3.59489052.46245059-1.11441605.3201581-2.0850365.74703557-2.94781021 1.31620553-.82682482.56916996-1.54580292 1.20948617-2.0850365 1.99209486-.57518248.7826087-.93467153 1.63636364-1.11441606 2.59683795-.21569343 1.20948616-.0359489 2.16996047.53923358 2.8458498.57518248.67588933 1.3660584 1.20948617 2.40857664 1.5652174 1.00656934.35573122 2.1209854.60474308 3.34324817.74703557 1.22226278.14229249 2.33667884.24901185 3.41514599.39130434 1.04251825.10671937 1.94124088.24901186 2.58832117.4624506.6830292.1778656.97062044.49802371.89872263.9604743-.14379562.81818182-.6830292 1.45849803-1.58175183 1.8853755-.89872263.42687747-2.22883212.67588933-3.99032847.67588933-.89872262 0-1.79744525-.10671937-2.66021897-.28458498-2.58832117-.35573123-5.50018249.03557312-6.83029197 2.95256917.17974452.03557312.43138686.10671936.7189781.24901185.39543795.17786562.97062044.35573123 1.65364963.56916996.7189781.21343874 1.58175183.39130435 2.62427008.53359684 1.04251824.1422925 2.30072992.21343874 3.77463503.21343874 1.90529197 0 3.5229927-.17786562 4.8890511-.56916996 1.33010949-.39130435 2.48047445-.88932807 3.34324817-1.52964427.89872263-.6403162 1.54580292-1.35177866 2.01313869-2.16996048.46733576-.81818181.79087591-1.63636363.93467153-2.45454545.21569343-1.06719368.17974453-1.99209486-.10784671-2.70355731-.32354015-.67588933-.75492701-1.2450593-1.3660584-1.67193676"/>
      <path fill="rgb(0,0,0)" fill-rule="evenodd" d="M94.61751825 34.07905138c-1.79744526 0-3.34324818.81818182-3.66678832 2.5256917l-.39543796 2.06324111h7.11788321L95.0129562 52.75494071c-.0359489.10671937-.21569343 1.13833992-.21569343 1.13833992h.6111314c5.14069342 0 4.9609489-2.31225296 5.46423357-4.76679842l2.01313868-10.45849802h3.59489051c2.7680657-.03557312 3.88248176-1.52964427 4.2419708-3.77075099l.14379563-.81818182H94.61751825z"/>
      <path fill="rgb(0,0,0)" fill-rule="evenodd" d="M153.429927 35.57312253c-.97062043-1.03162055-2.76806569-1.52964427-5.35638685-1.52964427h-9.23886862c-1.4379562 0-2.8399635.7826087-3.09160584 2.27667984l-3.09160584 16.39920949c0 .07114624-.0359489.14229249-.0718978.21343873l-.17974453.92490119h.7189781c5.03284672-.60474308 4.85310219-2.34782609 5.46423358-4.76679842l2.04908759-10.81422925h5.89562044c1.04251824 0 1.68959854.21343874 2.01313868.6403162.32354015.42687748.39543796.88932807.32354015 1.45849803-.10784672.56916996-.39543796 1.03162055-.86277372 1.45849802-.28759125.28458499-.75492701.42687748-1.29416059.53359684-3.77463503.49802372-4.31386861 3.20158103-3.41514598 5.72727273 0 0 1.72554744 3.52173913 1.83339416 3.69960474.53923357.99604743 1.4739051 2.13438735 3.30729927 2.09881423h3.09160584l-2.87591241-6.1541502c-.43138686-.7826087.10784671-1.2806324.7189781-1.67193675 1.00656934-.42687747 1.90529197-.96047431 2.69616788-1.63636364 1.15036497-.99604743 1.86934307-2.34782609 2.19288321-4.05533597.43138687-2.2055336.14379563-3.77075099-.82682481-4.80237154"/>
      <path fill="rgb(0,0,0)" fill-rule="evenodd" d="M130.06313869 42.43873518c.53923357-.49802372 1.29416058-1.70750988 1.4379562-3.45059289.21569343-2.09881423-.93467153-3.486166-1.18631387-3.69960474-.50328467-.42687747-1.15036496-.71146245-1.90529197-.92490119-.754927-.21343873-1.61770073-.28458498-2.58832117-.28458498h-8.34014598c-1.76149635 0-4.06222628.4624506-4.52956205 2.63241107l-3.30729927 17.07509881c.14379562-.03557312.28759124-.03557312.46733577-.07114624 5.03284672-.60474308 4.9609489-2.34782609 5.6080292-4.76679842l1.83339416-8.8577075.0718978-.42687748c.25164234-.92490119.6830292-1.52964427 1.86934307-1.52964427h5.06879562c1.54580292.03557312 1.76149635 1.20948617 1.68959854 1.70750988-.0359489.39130435-.10784671 2.02766799-1.90529197 2.02766799h-2.48047445c-1.00656934.07114624-2.26478102.39130435-2.7680657 2.02766798-.50328466 1.63636364-.61113138 1.8853755-.61113138 1.92094862h5.35638686c2.7680657 0 2.58832117 4.05533597-1.07846715 4.09090909-.17974453 0-3.19945256.03557312-3.19945256.03557312-.97062043.07114625-2.22883211.39130435-2.76806569 2.02766799-.50328467 1.63636363-.61113139 1.88537549-.61113139 1.92094861h6.11131387c1.25821168 0 2.33667883-.14229249 3.30729927-.46245059.97062044-.3201581 1.76149635-.71146245 2.44452555-1.20948617.6830292-.49802371 1.18631387-1.1027668 1.61770073-1.77865612.39543796-.67588933.6830292-1.38735178.79087591-2.13438735.25164234-1.4229249-.14379562-2.41897234-.89872263-3.27272728-.97062043-1.06719367-.7908759-1.38735178.50328468-2.59683794"/>
      <path fill="rgb(0,0,0)" fill-rule="evenodd" d="M87.82317518 35.57312253c-.97062044-1.03162055-2.7680657-1.52964427-5.35638686-1.52964427H73.120073c-1.65364963.1422925-2.69616788.81818182-3.05565693 2.8458498L66.9009124 53.85770751h.7189781c3.88248175-.4624506 4.67335767-1.60079051 5.10474453-3.23715415l2.33667883-12.37944664h5.89562044c1.04251824 0 1.68959854.21343873 2.01313868.6403162.32354015.42687748.39543796.88932807.32354015 1.45849803-.10784672.56916996-.39543796 1.03162055-.86277372 1.45849802-.28759124.24901186-.7189781.42687747-1.22226278.53359684-4.31386861.92490119-4.42171533 3.80632411-2.98375912 6.58102767.10784671.21343873.17974452.39130435.25164233.53359684.07189781.10671936.10784672.21343873.14379562.3201581.25164234.49802371.46733577.9604743.6830292 1.38735178.10784672.24901186.21569343.4624506.28759124.6403162.53923358.99604743 1.47390511 2.13438735 3.27135037 2.09881423h3.19945255l-.39543795-.81818182c-.07189781-.10671936-.14379562-.21343873-.17974453-.3201581l-2.19288321-4.5889328c-.39543796-1.13833993-.0359489-1.8853755 1.07846715-2.38339921.754927-.39130435 1.47390511-.85375495 2.1209854-1.38735178 1.15036497-.99604743 1.86934307-2.34782609 2.19288322-4.05533597.39543795-2.16996048.10784671-3.73517787-.86277373-4.76679842"/>
      <path fill="rgb(0,0,0)" fill-rule="evenodd" d="M42.67135036 37.95652174c-.14379562-.7826087-.43138686-1.4229249-.89872262-2.02766799-.46733577-.56916996-1.07846716-1.03162055-1.83339416-1.38735177-.79087592-.35573123-1.72554745-.49802372-2.8040146-.49802372h-7.44142336c-2.0850365 0-4.02627737.49802372-4.78120438 3.02371542l-2.94781022 15.6521739c-.0359489.1422925-.10784671.24901187-.17974452.35573123l-.14379562.7826087h.89872262c4.09817519-.4624506 4.74525548-1.743083 5.17664234-3.486166l1.94124088-10.35177866c.10784671-.56916996.32354014-1.06719368.64708029-1.38735178l.0359489-.03557313c.07189781-.03557312.14379562-.10671936.21569343-.14229249l.0359489-.03557312c.07189782-.03557312.14379563-.07114624.25164234-.10671937h.07189781c.10784672-.03557312.17974453-.03557312.28759125-.07114624h4.13412408c.97062044 0 1.68959854.17786561 2.0850365.49802371.39543796.3201581.53923358.85375495.39543796 1.5652174-.14379563.81818181-.50328468 1.38735177-1.00656935 1.743083-.53923357.35573123-1.29416058.53359684-2.26478102.53359684h-.6830292c-1.90529197 0-3.05565693 2.41897233-3.30729927 3.98418972h4.2419708c1.11441606 0 2.1209854-.17786561 3.01970804-.49802371.89872262-.35573123 1.68959854-.7826087 2.37262773-1.35177866.6830292-.56916996 1.22226278-1.24505929 1.65364964-1.99209486.43138686-.74703558.7189781-1.5652174.86277372-2.38339921.10784672-.81818182.10784672-1.60079052-.0359489-2.38339921"/>
      <path fill="rgb(0,0,0)" fill-rule="evenodd" d="M174.56788321 51.90118577c-.17974452-.85375494-.35948905-1.77865613-.53923357-2.81027668-.21569344-1.20948617-.46733577-2.45454545-.7189781-3.69960474-.25164234-1.28063241-.50328468-2.5256917-.7189781-3.73517787-.07189782-.42687747-.14379563-.81818182-.21569344-1.24505929l-1.25821168-6.3320158h-5.03284671c-.82682482.07114624-2.22883212.53359683-3.30729927 2.34782608-.17974453.35573123-.39543796.7826087-.6470803 1.20948617-.43138686.81818181-.93467153 1.70750988-1.4739051 2.73913043-.53923358 1.03162055-1.11441606 2.0632411-1.68959855 3.13043478-.57518248 1.06719368-1.15036496 2.13438736-1.72554744 3.13043479-.57518248 1.03162055-1.07846715 1.95652174-1.54580292 2.81027668-.32354015.60474308-.6470803 1.13833992-.89872263 1.60079051l-.25164233.4624506v.03557312c-.28759125.56916996-.46733577.88932806-.53923358 1.03162055s-.14379562.24901186-.21569343.35573122l-.53923358.96047431h2.87591241c2.40857664 0 3.5589416-1.35177865 4.2779197-2.56126482l4.67335767-8.89328063c1.3660584-2.59683795 2.0850365-2.24110672 2.0850365-2.24110672l.89872263 5.40711462h-.57518248c-1.00656935.07114625-2.26478103.39130435-2.7680657 2.02766799-.50328467 1.63636363-.61113139 1.8853755-.61113139 1.92094861h4.63740876l.21569343 1.20948617c.21569344 1.28063241 1.18631387 3.13043478 3.4510949 3.13043478h2.55237226l-.39543796-1.99209486z"/>
      <path fill="rgb(255,0,0)" fill-rule="evenodd" d="M112.05273723 16.50592885c-1.15036497-.42687747-2.66021898-.7826087-4.49361314-1.1027668-1.83339416-.3201581-3.81058394-.67588932-5.89562044-1.03162055-2.1209854-.39130435-4.02627737-.9604743-5.75182482-1.77865612-1.72554744-.7826087-3.05565693-1.8853755-4.02627737-3.27272728-.97062044-1.38735178-1.18631387-3.23715415-.6830292-5.54940711.21569343-.96047431.50328467-1.84980237.86277373-2.6679842-9.95784672 2.06324112-17.75875913 11.59683795-20.88631387 19.49407115 6.75839416-6.72332015 27.5009124.64031621 29.65784671 1.13833993 3.5589416.81818181 6.54270073.88932806 9.095073.56916996.21569343-.07114625.46733576-.1422925.64708029-.24901186 1.61770073-.7826087 2.58832116-1.95652174 2.94781022-3.52173913.17974452-.96047431-.32354015-1.60079052-1.47390511-2.02766799"/>
      <path fill="rgb(255,0,0)" fill-rule="evenodd" d="M99.65036496 5.90513834c1.15036497.42687747 2.66021898.7826087 4.49361314 1.1027668 1.83339416.3201581 3.81058394.67588933 5.89562044 1.03162055 2.1209854.39130435 4.02627737.96047431 5.75182482 1.77865613 1.72554744.7826087 3.05565693 1.8853755 4.02627737 3.27272727.97062044 1.38735178 1.18631387 3.23715415.6830292 5.54940712-.21569343.9604743-.50328467 1.84980237-.86277373 2.66798419 9.99379562-2.06324111 17.75875913-11.59683795 20.88631387-19.49407115-6.75839416 6.72332016-27.5009124-.6403162-29.65784671-1.13833992-3.5589416-.81818182-6.54270073-.88932807-9.05912409-.56916996-.21569343.07114624-.46733577.14229249-.6470803.24901186-1.61770072.7826087-2.58832116 1.95652173-2.94781021 3.55731225-.21569343.92490118.25164233 1.56521739 1.4379562 1.99209486"/>
    </g>
  </g>
</svg>
