<svg id="Camada_1" data-name="Camada 1" xmlns="http://www.w3.org/2000/svg" viewBox="0 0 1920 1080">
  <defs>
    <style>
      .cls-1 {
        fill: #ea4949;
      }

      .cls-2 {
        fill: #bbbdbd;
      }
    </style>
  </defs>
  <g>
    <path class="cls-1" d="M264.65,643.17c-21.42,25.07-46.89,43.06-78.9,49.23-43.15,8.31-84.88,4-121.69-22C30.37,646.67,16,611.12,11.55,571.82c-5.41-47.88-1.82-96.1-2-144.17C9.5,402,32,382.75,58.22,383.56c28.86.89,45.27,16.92,45.63,44.64.55,42.09.94,84.18,1.68,126.26.54,30.89,14.77,49.32,42,55.34,34.08,7.52,61.85-11.43,66.39-46,4.05-30.9,2.71-62,2.64-93.08,0-9-.3-18,1.53-26.95,4.74-23,23.57-36.37,49-34.73,24.43,1.57,42.31,18.47,43.06,41.74,1,30.38-.24,60.8,2,91.16,1.1,15.06,3.74,29.61,11.63,43,12.54,21.21,31.73,26,54.27,22.68,20.46-3,32.51-15.64,38.62-34.65,5.65-17.59,4.36-35.71,3.22-53.67q-3-48-9.05-95.66c-2.87-22.78,11.54-38.78,36.64-42.21,28.21-3.86,52.57,12.72,59.39,40.41.48,1.94,1.07,3.85,1.68,5.76,4.61,14.43,3.13,27.26-3.54,41.78-20.19,43.94-22.41,89.45-4.3,135,2.16,5.44,2.2,10-.2,15.22-24.22,52.62-84.53,86-142.1,78.46C317.15,692.67,291.43,677.74,264.65,643.17Z"/>
    <path class="cls-1" d="M805.38,672.72c-37.86,17.53-77.44,26.84-119.35,24.53-33.59-1.85-66.56-7.63-96.8-22.71-55.43-27.65-81.89-73.61-80.7-135.17,2.28-118,107.79-166.2,189.87-149.2,31.07,6.43,60,16,80,42.72-.23,2.94-2.48,4.58-4.2,6.57C741.86,477,731,520.59,737.42,569.09c-41.36,17.63-84.42,12.06-128.61,8.14,9.32,13,19.73,22.08,32.66,28,35,16,70.61,12.28,106.26,2.22,10.84-.85,20.36-5.8,29.82-10.36,19.15-9.21,37.08-20.33,50.38-37.51a65.29,65.29,0,0,0,19.55-27.06c2.16-5.69,5.48-6.88,9.73-4.47,16.53,9.38,31.21,20.5,33.51,41.49,1.76,16-4.78,29.78-11.24,43.62-5.79,6.41-11.45,12.94-17.38,19.21C845.86,649.52,825.41,660.84,805.38,672.72ZM654.24,512.94c11-.42,23.29-1.35,34.29-7.93,6.89-4.12,12.24-9.47,11.5-18.35S693.9,472,686.19,468.53C659,456.2,620,471.07,607.57,498.11c-2.2,4.8-2.7,7.57,3.71,8.89C625,509.83,638.75,512.38,654.24,512.94Z"/>
    <path class="cls-2" d="M1726.59,579.27c16.44,21.26,37.06,30.51,61,34.12,28.3,4.27,56.51.89,84.78,0,11.91-.38,17.27,3.86,20.12,15,3.26,12.75,4.21,25.7.35,38.42-2.9,9.54-9.85,15.68-19.31,18.75-32.88,10.67-66.47,12.19-100.63,8.32-34-3.85-65.63-13.29-93.49-34-12.37-9.17-20.62-18.69-19.34-36.08,1.79-24.24,1.43-48.78.12-73.09-1.44-26.77-3-53.84-14.33-78.89-2.15-4.75-1-8.39,1.48-12.12,25.43-38.61,61.44-61.16,106.68-68.8,36.84-6.23,72.77-2.08,105.47,16.5,31.22,17.74,49.59,45.47,51.41,81.71,1.74,34.82-21.22,66.93-56.15,80.93-27.87,11.17-56.79,15.38-86.89,11.49C1754.81,579.84,1741.51,580,1726.59,579.27Zm39.31-66c11.93.26,21.84.12,31.49-3.19,13.08-4.47,20.66-13.21,19.55-23.12-1.09-9.65-12.13-18.93-24.49-19.86-7.29-.56-14.78-1-22,.05-20.53,3-36.8,12.49-46.11,32.09-3,6.28-.53,8.72,5,9.67C1742.14,511,1754.7,514.71,1765.9,513.22Z"/>
    <path class="cls-2" d="M805.38,672.72c20-11.88,40.48-23.2,56.72-40.38,5.93-6.27,11.59-12.8,17.38-19.2,18.06.85,35.75.62,52.5-8.3,33.54-17.86,40-70.39,21.11-101.67-10.67-17.7-27.88-25.16-47.49-27.44-31.05-3.61-66.74,6.92-76.16,45.47-3.1,12.71-4.8,25.42-1.51,38.35-13.3,17.18-31.23,28.3-50.38,37.51-9.46,4.56-19,9.51-29.82,10.36q-5.16-19.17-10.31-38.33c-6.38-48.5,4.44-92.13,36.82-129.63,1.72-2,4-3.63,4.2-6.57,10-2.76,15.94-11.6,24.48-16.68,22.36-13.32,46.16-20.88,72.16-23.92,33.79-4,66.09.68,96,15.5,48.06,23.79,75.77,62.79,81.65,116.94,4.58,42.2-4.11,80.63-30.23,114.26-21.28,27.4-50.21,43.3-83.84,50.33C892.46,699,847.63,695.74,805.38,672.72Z"/>
    <path class="cls-2" d="M1132.78,599.94c-1.46,18.46,2.67,39.64-2,60.38-5.4,24.1-28.22,37.94-52.53,32.7s-40.07-28.14-35.77-52.09c.7-3.89,3.34-6.51,5.35-9.44,18.52-27,26.57-57.36,26.39-89.48-.13-23.22-4-46.35-13.4-68-2.34-5.39-1.67-9.23,1.39-13.75,23.93-35.35,58-55.22,99-63.41,51.73-10.31,98.1,1.42,138.74,35.54,26.76,22.47,39.33,51.51,43.65,85.54,5.48,43.22,3.47,86.54,3.57,129.83,0,20.64-11.49,36.67-29.51,43.3A46.77,46.77,0,0,1,1266.8,678c-6.75-7.61-9.19-16.91-9.44-26.74-.34-13-.2-26.05-.17-39.07a710.67,710.67,0,0,0-4-80.7c-3.08-27.58-26.45-47.77-54.49-48.73-23.54-.82-43.75,4.95-56.59,26.29-6.84,11.36-8.93,24.29-9.22,37.34C1132.49,563.38,1132.78,580.42,1132.78,599.94Z"/>
    <path class="cls-2" d="M1427.73,602.38c-1.43,18.09,3,39.66-2.16,60.64-7.91,31.93-48.08,38.3-71,21.94-4.19-3-2.46-5.89-.33-8.37,9.8-11.42,11.44-25,11.32-39.28-.2-24,.38-48.1-.16-72.13-.69-30.22-2-60.47-12.77-89.26-2.49-6.65,1.79-10.9,4.66-15.43,17.1-27,42.07-44.51,71.35-55.45,62.49-23.36,119.93-13,170.35,30.34,23.82,20.48,35.53,48.16,39.51,79.49,5.57,43.86,3.56,87.84,3.75,131.8.09,21.51-10.88,37.42-29.35,44.32a46.64,46.64,0,0,1-51-12.85c-7.45-8.47-9.36-19-9.57-29.76-.42-22,.92-44.16-.62-66.09-1.19-16.89-.8-33.85-3.29-50.72-7.13-48.4-57.65-57.59-89.43-42.66-24.61,11.57-29.9,34.2-31.14,58.21C1427,564.44,1427.73,581.84,1427.73,602.38Z"/>
  </g>
</svg>
