<?xml version="1.0" encoding="utf-8"?>
<!-- Generator: Adobe Illustrator 24.0.0, SVG Export Plug-In . SVG Version: 6.00 Build 0)  -->
<svg version="1.1" id="Camada_1" xmlns="http://www.w3.org/2000/svg" xmlns:xlink="http://www.w3.org/1999/xlink" x="0px" y="0px"
	 viewBox="0 0 37.8 35" style="enable-background:new 0 0 37.8 35;" xml:space="preserve">
<style type="text/css">
	.st0{fill-rule:evenodd;clip-rule:evenodd;fill:#6F6F6F;}
	.st1{opacity:0.58;fill-rule:evenodd;clip-rule:evenodd;fill:#6F6F6F;}
</style>
<path class="st0" d="M33.4,30.3v-3.9h-0.6v1.5c-0.2-0.3-0.5-0.4-0.9-0.4c-0.8,0-1.5,0.7-1.5,1.5s0.7,1.5,1.5,1.5
	c0.3,0,0.7-0.1,0.9-0.4v0.3h0.6V30.3z M15.5,27.6h1v0.5h-1v1.3c0,0.3,0.1,0.5,0.4,0.5c0.2,0,0.4-0.1,0.6-0.2l0.2,0.5
	c-0.2,0.1-0.5,0.2-0.8,0.2c-0.7,0-1-0.4-1-1.1V28h-0.6v-0.6h0.6v-0.9h0.6V27.6z M22.7,30c-0.3-0.3-0.4-0.7-0.4-1.1l0,0
	c0-0.4,0.1-0.8,0.4-1.1s0.7-0.4,1.1-0.4s0.7,0.1,1,0.3l-0.3,0.5c-0.2-0.2-0.5-0.3-0.7-0.3c-0.5,0-0.8,0.4-0.8,0.9s0.4,0.9,0.8,0.9
	c0.3,0,0.5-0.1,0.7-0.3l0.3,0.5c-0.3,0.2-0.7,0.4-1,0.3C23.4,30.4,23,30.3,22.7,30z M21.6,27.5c-0.3,0-0.6,0.2-0.8,0.4v-0.3h-0.6
	v2.7h0.6v-1.6c0-0.5,0.2-0.7,0.6-0.7c0.1,0,0.3,0,0.4,0.1l0.2-0.6C21.9,27.5,21.7,27.5,21.6,27.5L21.6,27.5z M30,27.5
	c-0.3,0-0.6,0.2-0.8,0.4v-0.3h-0.6v2.7h0.6v-1.6c0-0.5,0.2-0.7,0.6-0.7c0.1,0,0.3,0,0.4,0.1l0.2-0.6C30.2,27.5,30.1,27.5,30,27.5
	L30,27.5z M7.5,28.5v1.7H6.9v-1.6c0-0.5-0.2-0.7-0.6-0.7c-0.2,0-0.4,0.1-0.5,0.2s-0.2,0.3-0.2,0.5v1.6H5v-1.6c0-0.5-0.2-0.7-0.6-0.7
	c-0.2,0-0.4,0.1-0.5,0.2s-0.2,0.3-0.2,0.5v1.6H3.1v-2.7h0.6v0.4c0.2-0.3,0.5-0.4,0.8-0.4c0.4,0,0.7,0.2,0.9,0.5
	c0.2-0.3,0.6-0.5,1-0.5c0.3,0,0.6,0.1,0.8,0.3C7.4,27.9,7.5,28.2,7.5,28.5z M12.7,27.5c0.4,0,0.8,0.1,1.2,0.3l-0.3,0.5
	c-0.3-0.2-0.6-0.2-0.9-0.2c-0.3,0-0.5,0.1-0.5,0.3s0.2,0.2,0.5,0.3H13c0.6,0.1,1,0.3,1,0.9s-0.5,0.9-1.3,0.9c-0.4,0-0.9-0.1-1.2-0.4
	l0.3-0.5c0.3,0.2,0.6,0.3,1,0.3s0.7-0.1,0.7-0.3c0-0.2-0.2-0.2-0.5-0.3h-0.3c-0.6-0.1-1-0.4-1-0.8C11.5,27.7,12,27.5,12.7,27.5z
	 M10.9,30.3v-2.7h-0.6v0.3c-0.2-0.3-0.5-0.4-0.9-0.4c-0.8,0-1.5,0.7-1.5,1.5s0.7,1.5,1.5,1.5c0.3,0,0.7-0.1,0.9-0.4v0.3L10.9,30.3
	L10.9,30.3z M27.9,30.3v-2.7h-0.6v0.3c-0.2-0.3-0.5-0.4-0.9-0.4c-0.8,0-1.5,0.7-1.5,1.5s0.7,1.5,1.5,1.5c0.3,0,0.7-0.1,0.9-0.4v0.3
	L27.9,30.3L27.9,30.3z M18.3,27.5c-0.8,0-1.5,0.7-1.5,1.5s0.7,1.5,1.5,1.5c0.4,0,0.9-0.1,1.2-0.4l-0.3-0.5c-0.2,0.2-0.5,0.3-0.8,0.3
	c-0.4,0-0.8-0.3-0.9-0.7h2V29C19.7,28,19.1,27.5,18.3,27.5L18.3,27.5z M18.8,28.2c-0.1-0.1-0.3-0.2-0.5-0.2l0,0
	c-0.4,0-0.7,0.3-0.8,0.7H19C19.1,28.5,19,28.3,18.8,28.2z M26.5,28.1c-0.5,0-0.9,0.3-0.9,0.8c0,0.2,0.1,0.5,0.2,0.6
	c0.2,0.2,0.4,0.3,0.6,0.3c0.5,0,0.9-0.4,0.9-0.8C27.3,28.5,26.9,28.1,26.5,28.1z M9.5,28.1c-0.5,0-0.9,0.3-0.9,0.8l0,0
	c0,0.2,0.1,0.5,0.2,0.6c0.2,0.2,0.4,0.3,0.6,0.3c0.5,0,0.9-0.4,0.9-0.8C10.3,28.5,10,28.1,9.5,28.1z M32.1,28.1
	c-0.5,0-0.9,0.3-0.9,0.8c0,0.2,0.1,0.5,0.2,0.6c0.2,0.2,0.4,0.3,0.6,0.3c0.5,0,0.9-0.4,0.9-0.8C32.9,28.5,32.6,28.1,32.1,28.1z
	 M34.6,29.9L34.6,29.9h-0.2c0,0-0.1,0-0.1,0.1c0,0,0,0.1-0.1,0.1c0,0.1,0,0.1,0,0.2s0.2,0.2,0.3,0.2h0.1c0,0,0.1,0,0.1-0.1
	c0,0,0-0.1,0.1-0.1c0-0.1,0-0.1,0-0.2C34.7,30,34.7,30,34.6,29.9C34.7,30,34.6,29.9,34.6,29.9z M34.5,30.4L34.5,30.4
	c0.1,0,0.1,0,0.2-0.1c0.1-0.1,0.1-0.2,0-0.3c0,0,0,0-0.1,0h-0.1h-0.1h-0.1c-0.1,0.1-0.1,0.2,0,0.3C34.3,30.4,34.4,30.4,34.5,30.4
	C34.4,30.4,34.4,30.4,34.5,30.4L34.5,30.4z M34.6,30.1C34.5,30.1,34.5,30.1,34.6,30.1h-0.2v0.3h0.1v-0.1l0,0l0.1,0.1h0.1l-0.1-0.1
	c0,0,0,0,0.1,0C34.6,30.2,34.6,30.2,34.6,30.1L34.6,30.1z M34.4,30.1L34.4,30.1L34.4,30.1C34.5,30.2,34.5,30.2,34.4,30.1L34.4,30.1
	L34.4,30.1C34.5,30.1,34.5,30.1,34.4,30.1L34.4,30.1z"/>
<path class="st1" d="M14.9,14.6c0-3.2,1.5-6.2,4-8.1c-4.3-3.5-10.4-3-14.1,1c-3.8,4-3.7,10.1,0,14s9.9,4.5,14.1,1.2
	C16.4,20.7,14.9,17.7,14.9,14.6z"/>
<path class="st0" d="M35.8,14.7c0,4-2.3,7.6-5.9,9.3s-7.8,1.3-11-1.2c2.5-1.9,4-4.9,4-8.1s-1.5-6.2-4-8.2c3.1-2.4,7.5-2.9,11-1.2
	S35.8,10.7,35.8,14.7L35.8,14.7z"/>
</svg>
