<svg width="40" height="31" viewBox="0 0 40 31" fill="none" xmlns="http://www.w3.org/2000/svg">
<g clip-path="url(#clip0_115_532)">
<path d="M39.212 30.5794V30.6591H39.286C39.3 30.6591 39.314 30.6551 39.326 30.6492C39.336 30.6432 39.342 30.6312 39.342 30.6193C39.342 30.6073 39.336 30.5954 39.326 30.5894C39.314 30.5814 39.3 30.5794 39.286 30.5794H39.212ZM39.288 30.5237C39.32 30.5217 39.352 30.5316 39.378 30.5496C39.4 30.5675 39.41 30.5934 39.41 30.6193C39.41 30.6432 39.402 30.6651 39.384 30.681C39.364 30.699 39.338 30.7089 39.312 30.7109L39.412 30.8245H39.336L39.244 30.7109H39.214V30.8245H39.15V30.5237H39.288ZM39.268 30.9281C39.302 30.9281 39.336 30.9221 39.366 30.9082C39.396 30.8962 39.422 30.8763 39.446 30.8544C39.47 30.8325 39.488 30.8046 39.5 30.7747C39.526 30.7109 39.526 30.6412 39.5 30.5774C39.488 30.5476 39.468 30.5217 39.446 30.4978C39.422 30.4758 39.396 30.4559 39.366 30.444C39.334 30.432 39.302 30.424 39.268 30.426C39.234 30.426 39.2 30.432 39.168 30.444C39.138 30.4559 39.11 30.4758 39.086 30.4978C39.014 30.5715 38.992 30.681 39.032 30.7767C39.044 30.8066 39.062 30.8345 39.086 30.8564C39.11 30.8803 39.138 30.8982 39.168 30.9102C39.198 30.9241 39.232 30.9301 39.268 30.9281ZM39.268 30.3523C39.356 30.3523 39.44 30.3862 39.504 30.4479C39.534 30.4778 39.558 30.5117 39.574 30.5515C39.608 30.6312 39.608 30.7229 39.574 30.8046C39.558 30.8424 39.534 30.8783 39.504 30.9082C39.474 30.9381 39.438 30.962 39.398 30.9779C39.358 30.9958 39.312 31.0038 39.268 31.0038C39.222 31.0038 39.178 30.9958 39.136 30.9779C39.096 30.962 39.06 30.9381 39.03 30.9082C39 30.8783 38.976 30.8404 38.96 30.8006C38.926 30.7209 38.926 30.6292 38.96 30.5476C38.976 30.5097 39 30.4738 39.03 30.444C39.06 30.4141 39.096 30.3902 39.136 30.3742C39.178 30.3563 39.222 30.3483 39.268 30.3483V30.3523ZM8.64402 29.1888C8.64402 28.615 9.02202 28.1409 9.64002 28.1409C10.23 28.1409 10.628 28.5931 10.628 29.1888C10.628 29.7845 10.23 30.2368 9.64002 30.2368C9.02202 30.2368 8.64402 29.7646 8.64402 29.1888ZM11.3 29.1888V27.5532H10.586V27.9516C10.36 27.6568 10.016 27.4715 9.55002 27.4715C8.63002 27.4715 7.90802 28.1907 7.90802 29.1888C7.90802 30.187 8.63002 30.9062 9.55002 30.9062C10.016 30.9062 10.36 30.7209 10.586 30.426V30.8225H11.3V29.1888ZM35.42 29.1888C35.42 28.615 35.798 28.1409 36.416 28.1409C37.008 28.1409 37.404 28.5931 37.404 29.1888C37.404 29.7845 37.006 30.2368 36.416 30.2368C35.798 30.2368 35.42 29.7646 35.42 29.1888ZM38.078 29.1888V26.2402H37.364V27.9516C37.138 27.6568 36.794 27.4715 36.328 27.4715C35.408 27.4715 34.686 28.1907 34.686 29.1888C34.686 30.187 35.408 30.9062 36.328 30.9062C36.794 30.9062 37.138 30.7209 37.364 30.426V30.8225H38.078V29.1888ZM20.16 28.109C20.62 28.109 20.916 28.3959 20.99 28.9019H19.286C19.364 28.4298 19.652 28.109 20.16 28.109ZM20.174 27.4715C19.212 27.4715 18.538 28.1688 18.538 29.1888C18.538 30.2288 19.238 30.9062 20.22 30.9062C20.714 30.9062 21.168 30.7827 21.566 30.4479L21.216 29.922C20.94 30.1411 20.59 30.2647 20.26 30.2647C19.8 30.2647 19.382 30.0515 19.278 29.4638H21.716C21.722 29.3761 21.73 29.2864 21.73 29.1908C21.726 28.1688 21.092 27.4715 20.174 27.4715ZM28.792 29.1868C28.792 28.6131 29.17 28.1389 29.788 28.1389C30.378 28.1389 30.776 28.5911 30.776 29.1868C30.776 29.7825 30.378 30.2348 29.788 30.2348C29.17 30.2348 28.792 29.7626 28.792 29.1868ZM31.45 29.1868V27.5532H30.736V27.9516C30.508 27.6568 30.166 27.4715 29.7 27.4715C28.78 27.4715 28.058 28.1907 28.058 29.1888C28.058 30.187 28.78 30.9062 29.7 30.9062C30.166 30.9062 30.51 30.7209 30.736 30.426V30.8225H31.45V29.1868ZM24.76 29.1868C24.76 30.179 25.454 30.9042 26.512 30.9042C27.006 30.9042 27.336 30.7946 27.692 30.5137L27.35 29.9399C27.082 30.1312 26.8 30.2348 26.49 30.2348C25.92 30.2288 25.502 29.8184 25.502 29.1868C25.502 28.5553 25.92 28.1469 26.49 28.1389C26.8 28.1389 27.082 28.2425 27.35 28.4337L27.692 27.86C27.336 27.5791 27.006 27.4695 26.512 27.4695C25.454 27.4715 24.76 28.1947 24.76 29.1868ZM33.962 27.4715C33.55 27.4715 33.282 27.6627 33.096 27.9516V27.5532H32.388V30.8225H33.102V28.9896C33.102 28.4477 33.336 28.1488 33.802 28.1488C33.954 28.1469 34.106 28.1747 34.248 28.2305L34.468 27.5611C34.314 27.4974 34.108 27.4715 33.962 27.4715ZM14.83 27.8141C14.486 27.589 14.014 27.4715 13.492 27.4715C12.66 27.4715 12.126 27.8679 12.126 28.5174C12.126 29.0514 12.524 29.3801 13.258 29.4817L13.596 29.5295C13.988 29.5853 14.172 29.6869 14.172 29.8722C14.172 30.1252 13.912 30.2686 13.424 30.2686C12.93 30.2686 12.572 30.1113 12.332 29.926L11.996 30.4798C12.388 30.7667 12.882 30.9042 13.418 30.9042C14.366 30.9042 14.916 30.4599 14.916 29.8363C14.916 29.2625 14.484 28.9617 13.77 28.8581L13.434 28.8103C13.124 28.7704 12.878 28.7087 12.878 28.4895C12.878 28.2505 13.112 28.107 13.502 28.107C13.922 28.107 14.326 28.2644 14.526 28.3879L14.83 27.8141ZM24.04 27.4715C23.628 27.4715 23.36 27.6627 23.176 27.9516V27.5532H22.468V30.8225H23.182V28.9896C23.182 28.4477 23.416 28.1488 23.882 28.1488C24.034 28.1469 24.186 28.1747 24.328 28.2305L24.548 27.5611C24.39 27.4974 24.184 27.4715 24.04 27.4715ZM17.948 27.5532H16.78V26.561H16.06V27.5532H15.394V28.2026H16.06V29.6949C16.06 30.4539 16.356 30.9062 17.2 30.9062C17.51 30.9062 17.866 30.8105 18.094 30.6532L17.888 30.0435C17.674 30.167 17.442 30.2288 17.256 30.2288C16.9 30.2288 16.782 30.0096 16.782 29.6809V28.2026H17.95L17.948 27.5532ZM7.27802 30.8245V28.7724C7.27802 27.9994 6.78402 27.4794 5.98602 27.4735C5.56602 27.4675 5.13402 27.597 4.83202 28.0552C4.60602 27.6926 4.24802 27.4735 3.74802 27.4735C3.39802 27.4735 3.05402 27.5771 2.78602 27.9596V27.5532H2.07202V30.8225H2.79202V29.0095C2.79202 28.4417 3.10802 28.1409 3.59602 28.1409C4.07002 28.1409 4.31002 28.4477 4.31002 29.0035V30.8225H5.03202V29.0095C5.03202 28.4417 5.36202 28.1409 5.83602 28.1409C6.32402 28.1409 6.55602 28.4477 6.55602 29.0035V30.8225L7.27802 30.8245Z" fill="#4E4E4E"/>
<path d="M39.6181 19.9469V19.4688H39.4941L39.3501 19.7975L39.2061 19.4688H39.0801V19.9469H39.1681V19.5863L39.3041 19.8971H39.3961L39.5321 19.5863V19.9469H39.6181ZM38.8261 19.9469V19.5504H38.9861V19.4707H38.5781V19.5504H38.7381V19.9469H38.8261Z" fill="#4E4E4E"/>
<path d="M15.28 12.3163C15.28 8.38755 17.126 4.88909 20.002 2.63382C17.826 0.924434 15.134 -0.0039718 12.362 1.27726e-05C5.534 1.27726e-05 0 5.51467 0 12.3163C0 19.118 5.534 24.6327 12.362 24.6327C15.134 24.6366 17.826 23.7082 20.002 21.9989C17.126 19.7436 15.28 16.2431 15.28 12.3163Z" fill="#4E4E4E"/>
<path d="M40.004 12.3163C40.004 19.118 34.47 24.6327 27.642 24.6327C24.87 24.6367 22.178 23.7082 20.002 21.9989C22.878 19.7436 24.724 16.2451 24.724 12.3163C24.724 8.38755 22.878 4.88909 20.002 2.63382C22.178 0.924434 24.872 -0.0039718 27.644 1.27726e-05C34.47 1.27726e-05 40.004 5.51467 40.004 12.3163Z" fill="#B2B2B2"/>
</g>
<defs>
<clipPath id="clip0_115_532">
<rect width="40" height="31" fill="white"/>
</clipPath>
</defs>
</svg>
