<svg width="53" height="20" viewBox="0 0 53 20" fill="none" xmlns="http://www.w3.org/2000/svg">
<g clip-path="url(#clip0_115_537)">
<path d="M21.8721 18.6771V7.20379C21.8721 5.09573 23.4852 3.3833 25.471 3.3833L28.6584 3.38921C30.6387 3.39511 32.2462 5.10164 32.2462 7.20379V9.64253C32.2462 11.7506 30.6331 13.463 28.6473 13.463H24.1416" stroke="#4E4E4E" stroke-width="0.5" stroke-linecap="round" stroke-linejoin="round"/>
<path d="M33.1416 3.3833H34.5267C35.3444 3.3833 36.0063 4.08599 36.0063 4.95401V13.5221" stroke="#4E4E4E" stroke-width="0.5" stroke-linecap="round" stroke-linejoin="round"/>
<path d="M35.7061 2.05492L35.0775 1.38766C34.9218 1.22232 34.9218 0.956599 35.0775 0.791261L35.7061 0.124004C35.8618 -0.0413345 36.1121 -0.0413345 36.2735 0.124004L36.902 0.791261C37.0578 0.956599 37.0578 1.22232 36.902 1.38766L36.2679 2.05492C36.1121 2.22025 35.8618 2.22025 35.7061 2.05492Z" fill="#4E4E4E"/>
<path d="M38.6597 3.37744H40.0336C40.7401 3.37744 41.4187 3.67269 41.9138 4.20413L45.1234 7.61128C45.5405 8.05415 46.2136 8.05415 46.6308 7.61128L49.8293 4.21594C50.3299 3.6845 51.003 3.38925 51.7094 3.38925H52.8275" stroke="#4E4E4E" stroke-width="0.5" stroke-linecap="round" stroke-linejoin="round"/>
<path d="M38.6597 13.4454H40.0336C40.7401 13.4454 41.4187 13.1501 41.9138 12.6187L45.1234 9.21155C45.5405 8.76868 46.2136 8.76868 46.6308 9.21155L49.8293 12.6069C50.3299 13.1383 51.003 13.4336 51.7094 13.4336H52.8275" stroke="#4E4E4E" stroke-width="0.5" stroke-linecap="round" stroke-linejoin="round"/>
<path d="M13.6895 15.6187C13.0053 15.6187 12.3489 15.3353 11.8649 14.8215L9.23386 12.0226C9.03917 11.8277 8.73323 11.8277 8.5441 12.0226L5.90189 14.8275C5.41795 15.3412 4.76157 15.6305 4.07738 15.6305H3.56006L6.89759 19.1735C7.93779 20.2777 9.6288 20.2777 10.669 19.1735L14.0121 15.6246L13.6895 15.6187Z" fill="#4E4E4E"/>
<path d="M4.07738 5.73387C4.76157 5.73387 5.41795 6.02321 5.90189 6.53694L8.5441 9.34178C8.73323 9.54255 9.04473 9.54255 9.23386 9.34178L11.8649 6.54875C12.3489 6.03502 13.0053 5.74568 13.6895 5.74568H14.0065L10.6634 2.19682C9.62324 1.0926 7.93222 1.0926 6.89203 2.19682L3.56006 5.73387H4.07738Z" fill="#4E4E4E"/>
<path d="M16.7766 8.6802L14.7574 6.53671C14.7129 6.55443 14.6628 6.56624 14.6128 6.56624H13.6949C13.2166 6.56624 12.7604 6.767 12.4211 7.12721L9.78446 9.92024C9.28939 10.4458 8.48838 10.4458 7.99888 9.92024L5.35667 7.1154C5.01735 6.75519 4.56122 6.55443 4.08284 6.55443H2.94808C2.90358 6.55443 2.85352 6.54262 2.81458 6.5249L0.778684 8.6802C-0.261514 9.78442 -0.261514 11.5795 0.778684 12.6837L2.80902 14.839C2.85352 14.8213 2.89802 14.8095 2.94252 14.8095H4.07728C4.55566 14.8095 5.01179 14.6088 5.3511 14.2486L7.99332 11.4437C8.4717 10.9359 9.30608 10.9359 9.7789 11.4437L12.41 14.2367C12.7493 14.5969 13.2054 14.7977 13.6838 14.7977H14.6016C14.6517 14.7977 14.7018 14.8095 14.7463 14.8272L16.7655 12.6837C17.8168 11.5795 17.8168 9.78442 16.7766 8.6802Z" fill="#4E4E4E"/>
<path d="M24.6144 17.7031C24.4475 17.709 24.2806 17.7385 24.1193 17.7857V18.4825C24.2417 18.5297 24.3752 18.5534 24.5031 18.5534C24.8313 18.5534 24.9926 18.4353 24.9926 18.1282C24.9926 17.8271 24.8647 17.7031 24.6144 17.7031ZM24.0081 19.0021V17.6204H24.0971L24.1082 17.6794C24.2751 17.6322 24.4475 17.6027 24.6255 17.5909C24.7479 17.5791 24.8647 17.6204 24.9648 17.6972C25.0761 17.7975 25.115 17.9511 25.115 18.1282C25.115 18.3054 25.0594 18.4766 24.9036 18.5711C24.7868 18.636 24.6533 18.6656 24.5198 18.6597C24.3863 18.6597 24.2528 18.636 24.1249 18.5947V19.0021H24.0081Z" fill="#4E4E4E"/>
<path d="M25.9438 17.6971C25.6156 17.6971 25.4654 17.8093 25.4654 18.1164C25.4654 18.4116 25.61 18.5474 25.9438 18.5474C26.2775 18.5474 26.4166 18.4411 26.4166 18.1282C26.4166 17.8329 26.272 17.6971 25.9438 17.6971ZM26.3665 18.5474C26.2553 18.6301 26.1106 18.6537 25.9438 18.6537C25.7769 18.6537 25.6267 18.6301 25.5155 18.5474C25.3931 18.4588 25.343 18.3112 25.343 18.1223C25.343 17.9333 25.3931 17.7857 25.5155 17.6971C25.6211 17.6144 25.7713 17.5908 25.9438 17.5908C26.1162 17.5908 26.2608 17.6144 26.3665 17.6971C26.4889 17.7916 26.5334 17.9392 26.5334 18.1223C26.5334 18.3053 26.4889 18.4588 26.3665 18.5474Z" fill="#4E4E4E"/>
<path d="M27.9295 18.6299L27.5624 17.7914H27.5568L27.1953 18.6299H27.0896L26.7002 17.6201H26.8226L27.1508 18.4704H27.1563L27.5123 17.6201H27.6124L27.974 18.4704H27.9796L28.2966 17.6201H28.419L28.0241 18.6299H27.9295Z" fill="#4E4E4E"/>
<path d="M29.1366 17.691C28.8307 17.691 28.725 17.8386 28.7083 18.0453H29.5649C29.5538 17.815 29.4426 17.691 29.1366 17.691ZM29.1311 18.6535C28.9475 18.6535 28.8307 18.624 28.7361 18.5413C28.6249 18.4409 28.5859 18.2933 28.5859 18.122C28.5859 17.9508 28.636 17.7855 28.7639 17.691C28.8752 17.6142 29.0031 17.5788 29.1366 17.5906C29.2701 17.5847 29.4036 17.6142 29.5149 17.691C29.6539 17.7914 29.6818 17.9626 29.6818 18.1575H28.7027C28.7083 18.3642 28.7695 18.5472 29.1422 18.5472C29.3091 18.5413 29.4704 18.5236 29.6317 18.4882V18.5944C29.4704 18.6299 29.2979 18.6476 29.1311 18.6535Z" fill="#4E4E4E"/>
<path d="M29.9988 18.6301V17.6203H30.0878L30.0989 17.6794C30.2992 17.6262 30.3937 17.5908 30.5717 17.5908H30.5828V17.703H30.555C30.4048 17.703 30.3158 17.7266 30.1045 17.7857V18.636L29.9988 18.6301Z" fill="#4E4E4E"/>
<path d="M31.2338 17.691C30.9279 17.691 30.8222 17.8386 30.8055 18.0453H31.6621C31.651 17.815 31.5397 17.691 31.2338 17.691ZM31.2282 18.6535C31.0447 18.6535 30.9279 18.624 30.8333 18.5413C30.722 18.4409 30.6831 18.2933 30.6831 18.122C30.6831 17.9508 30.7332 17.7855 30.8611 17.691C30.9724 17.6142 31.1003 17.5788 31.2338 17.5906C31.3673 17.5847 31.5008 17.6142 31.6121 17.691C31.7511 17.7914 31.7789 17.9626 31.7789 18.1575H30.7999C30.8055 18.3642 30.8667 18.5472 31.2394 18.5472C31.4062 18.5413 31.5676 18.5236 31.7344 18.4882V18.5944C31.5676 18.6299 31.4007 18.6476 31.2282 18.6535Z" fill="#4E4E4E"/>
<path d="M32.9972 17.7622C32.8748 17.715 32.7413 17.6914 32.6133 17.6973C32.2852 17.6973 32.1238 17.8154 32.1238 18.1224C32.1238 18.4177 32.2518 18.5417 32.5021 18.5417C32.669 18.5358 32.8358 18.5063 32.9972 18.4649V17.7622ZM33.0194 18.6244L33.0083 18.5653C32.8414 18.6125 32.669 18.6421 32.491 18.6539C32.3686 18.6657 32.2518 18.6244 32.1517 18.5476C32.0404 18.4472 32.0015 18.2937 32.0015 18.1224C32.0015 17.9394 32.0571 17.774 32.2128 17.6796C32.3297 17.6146 32.4632 17.5851 32.5967 17.5851C32.7302 17.5851 32.8637 17.6087 32.9916 17.65V17.1895H33.1028V18.6303L33.0194 18.6244Z" fill="#4E4E4E"/>
<path d="M34.7382 17.7032C34.5713 17.7091 34.4044 17.7386 34.2431 17.7859V18.4826C34.3655 18.5299 34.499 18.5535 34.6269 18.5535C34.9551 18.5535 35.1164 18.4354 35.1164 18.1283C35.1164 17.8272 34.9885 17.7032 34.7382 17.7032ZM35.0274 18.5653C34.9106 18.6303 34.7771 18.6598 34.6436 18.6539C34.499 18.6539 34.3543 18.6243 34.2153 18.5771L34.2097 18.6243H34.1318V17.1895H34.2431V17.6737C34.41 17.6264 34.5768 17.6028 34.7493 17.591C34.8717 17.5792 34.9885 17.6205 35.0886 17.6973C35.1998 17.7977 35.2388 17.9512 35.2388 18.1283C35.2388 18.3055 35.1832 18.4708 35.0274 18.5653Z" fill="#4E4E4E"/>
<path d="M35.3833 19.0137V18.9015C35.439 18.9074 35.489 18.9133 35.5224 18.9133C35.6615 18.9133 35.7449 18.872 35.8228 18.7067L35.8617 18.624L35.3611 17.6143H35.489L35.9173 18.4882H35.9229L36.329 17.6143H36.4569L35.9229 18.748C35.8228 18.9547 35.7171 19.0196 35.5224 19.0196C35.4723 19.0255 35.4278 19.0196 35.3833 19.0137Z" fill="#4E4E4E"/>
<path d="M37.9923 18.0516H37.6251V18.4059H37.9923C38.2481 18.4059 38.3427 18.3763 38.3427 18.2287C38.3427 18.0693 38.2092 18.0516 37.9923 18.0516ZM37.9255 17.4788H37.6251V17.839H37.9311C38.1814 17.839 38.2815 17.8095 38.2815 17.6559C38.276 17.4965 38.148 17.4788 37.9255 17.4788ZM38.4985 18.5358C38.3594 18.6302 38.1981 18.6302 37.8977 18.6302H37.3303V17.2544H37.881C38.1425 17.2544 38.2982 17.2603 38.4317 17.343C38.5207 17.402 38.5708 17.5024 38.5652 17.6146C38.5652 17.7563 38.5096 17.8567 38.3594 17.9217V17.9276C38.5263 17.9689 38.632 18.0575 38.632 18.2523C38.6431 18.3645 38.5875 18.4767 38.4985 18.5358Z" fill="#4E4E4E"/>
<path d="M39.7611 18.205C39.6498 18.1932 39.5386 18.1873 39.4162 18.1873C39.2215 18.1873 39.1548 18.2286 39.1548 18.3231C39.1548 18.4176 39.2104 18.4589 39.3606 18.4589C39.4941 18.453 39.6276 18.4353 39.7611 18.3998V18.205ZM39.8167 18.6301L39.8112 18.5711C39.6443 18.6242 39.4663 18.6538 39.2938 18.6597C39.1937 18.6656 39.0936 18.6419 39.0046 18.5829C38.8822 18.4707 38.8655 18.2758 38.9657 18.14C38.9935 18.1105 39.0213 18.081 39.0602 18.0633C39.1603 18.0101 39.2938 18.0101 39.4162 18.0101C39.5163 18.0101 39.6498 18.016 39.7611 18.0219V18.0042C39.7611 17.8448 39.661 17.7916 39.394 17.7916C39.2883 17.7916 39.1659 17.7975 39.0435 17.8094V17.6027C39.177 17.5909 39.3272 17.585 39.4552 17.585C39.622 17.585 39.7945 17.5968 39.9002 17.6794C40.0058 17.7621 40.0281 17.8743 40.0281 18.0278V18.6242L39.8167 18.6301Z" fill="#4E4E4E"/>
<path d="M41.2742 18.6301V18.0692C41.2742 17.8861 41.1852 17.8212 41.0294 17.8212C40.8959 17.8271 40.768 17.8507 40.64 17.8861V18.6301H40.373V17.6204H40.59L40.6011 17.6853C40.768 17.6322 40.9404 17.6027 41.1129 17.5909C41.2297 17.5791 41.3465 17.6204 41.4411 17.6972C41.5134 17.768 41.5467 17.8684 41.5467 18.016V18.636H41.2742V18.6301Z" fill="#4E4E4E"/>
<path d="M42.2921 18.6538C42.1697 18.6538 42.0362 18.636 41.9361 18.5475C41.8193 18.4471 41.7859 18.2876 41.7859 18.1164C41.7859 17.957 41.836 17.7798 41.9806 17.6853C42.0974 17.6027 42.2476 17.585 42.3978 17.585C42.509 17.585 42.6147 17.5909 42.7315 17.6027V17.8212C42.637 17.8093 42.5201 17.8034 42.4256 17.8034C42.1753 17.8034 42.0529 17.8861 42.0529 18.1223C42.0529 18.3408 42.1419 18.4353 42.3477 18.4353C42.4812 18.4294 42.6147 18.4117 42.7482 18.3821V18.5888C42.598 18.6301 42.4423 18.6479 42.2921 18.6538Z" fill="#4E4E4E"/>
<path d="M43.5382 17.7975C43.2879 17.7975 43.1766 17.8802 43.1766 18.1105C43.1766 18.3408 43.2879 18.4412 43.5382 18.4412C43.7885 18.4412 43.8998 18.3585 43.8998 18.1282C43.8998 17.8979 43.7941 17.7975 43.5382 17.7975ZM43.9943 18.5475C43.8775 18.6301 43.7273 18.6538 43.5382 18.6538C43.3491 18.6538 43.1933 18.6301 43.0821 18.5475C42.9486 18.453 42.9041 18.3054 42.9041 18.1223C42.9041 17.9393 42.9486 17.7857 43.0821 17.6913C43.1989 17.6086 43.3491 17.585 43.5382 17.585C43.7273 17.585 43.8775 17.6086 43.9943 17.6913C44.1278 17.7857 44.1723 17.9393 44.1723 18.1164C44.1723 18.2936 44.1278 18.4589 43.9943 18.5475Z" fill="#4E4E4E"/>
<path d="M45.7076 18.6536C45.5463 18.6536 45.3738 18.6241 45.2459 18.5119C45.0902 18.3761 45.0457 18.1635 45.0457 17.9391C45.0457 17.7383 45.1068 17.4962 45.3071 17.3545C45.4628 17.2482 45.6575 17.2246 45.8522 17.2246C45.9968 17.2246 46.1415 17.2364 46.3028 17.2482V17.4962C46.1637 17.4844 45.9968 17.4726 45.8633 17.4726C45.4962 17.4726 45.3405 17.6202 45.3405 17.9391C45.3405 18.258 45.4851 18.4056 45.7577 18.4056C45.9523 18.3997 46.147 18.3702 46.3306 18.3229V18.565C46.1303 18.6182 45.919 18.6477 45.7076 18.6536Z" fill="#4E4E4E"/>
<path d="M47.1149 17.768C46.8924 17.768 46.809 17.8507 46.7923 18.0042H47.432C47.4264 17.8389 47.3374 17.768 47.1149 17.768ZM47.076 18.6538C46.9202 18.6538 46.7756 18.636 46.6699 18.5416C46.5642 18.4471 46.5142 18.2936 46.5142 18.1164C46.5142 17.9629 46.5587 17.7916 46.6922 17.6913C46.809 17.6027 46.9592 17.585 47.1094 17.585C47.2429 17.585 47.4042 17.6027 47.521 17.6853C47.6767 17.7975 47.6879 17.9747 47.6879 18.1814H46.7812C46.7867 18.3349 46.8646 18.4353 47.1316 18.4353C47.304 18.4294 47.4709 18.4117 47.6378 18.3821V18.5829C47.4598 18.6242 47.2651 18.6479 47.076 18.6538Z" fill="#4E4E4E"/>
<path d="M48.8782 18.6301V18.0692C48.8782 17.8861 48.7892 17.8212 48.6334 17.8212C48.4999 17.8271 48.372 17.8507 48.2441 17.8861V18.6301H47.9771V17.6204H48.194L48.2051 17.6853C48.372 17.6322 48.5444 17.6027 48.7169 17.5909C48.8337 17.5791 48.9505 17.6204 49.0451 17.6972C49.1174 17.768 49.1507 17.8684 49.1507 18.016V18.636H48.8782V18.6301Z" fill="#4E4E4E"/>
<path d="M49.9017 18.6535C49.7738 18.6535 49.657 18.6181 49.5902 18.5059C49.5402 18.4114 49.5124 18.3051 49.5179 18.1988V17.8209H49.3232V17.6083H49.5179L49.5457 17.3013H49.7794V17.6083H50.1576V17.8209H49.7849V18.1457C49.7794 18.2106 49.7905 18.2756 49.8127 18.3405C49.8406 18.4055 49.9017 18.435 49.9852 18.435C50.0464 18.435 50.1131 18.4291 50.1743 18.4173V18.6181C50.0853 18.6417 49.9907 18.6535 49.9017 18.6535Z" fill="#4E4E4E"/>
<path d="M50.4189 18.6301V17.6203H50.6359L50.647 17.6853C50.7972 17.6322 50.9585 17.5967 51.1198 17.5908C51.131 17.5908 51.1421 17.5908 51.1532 17.5908V17.8329C51.1254 17.8329 51.0865 17.8329 51.0586 17.8329C50.9307 17.8329 50.8083 17.8506 50.6859 17.8861V18.6301H50.4189Z" fill="#4E4E4E"/>
<path d="M52.121 18.2049C52.0098 18.1931 51.8985 18.1872 51.7761 18.1872C51.5815 18.1872 51.5147 18.2286 51.5147 18.323C51.5147 18.4175 51.5703 18.4588 51.7205 18.4588C51.854 18.4529 51.9875 18.4352 52.121 18.3998V18.2049ZM52.1766 18.6301L52.1711 18.571C52.0042 18.6242 51.8262 18.6537 51.6538 18.6596C51.5536 18.6655 51.4535 18.6419 51.3645 18.5829C51.2922 18.5238 51.2533 18.4352 51.2588 18.3408C51.2533 18.2227 51.32 18.1164 51.4201 18.0691C51.5203 18.016 51.6538 18.016 51.7761 18.016C51.8763 18.016 52.0098 18.0219 52.121 18.0278V18.0101C52.121 17.8506 52.0209 17.7975 51.7539 17.7975C51.6482 17.7975 51.5258 17.8034 51.4034 17.8152V17.6085C51.5369 17.5967 51.6871 17.5908 51.8151 17.5908C51.982 17.5908 52.1544 17.6026 52.2601 17.6853C52.3658 17.768 52.388 17.8802 52.388 18.0337V18.6301H52.1766Z" fill="#4E4E4E"/>
<path d="M52.7275 17.1895H52.9945V18.6303H52.7275V17.1895Z" fill="#4E4E4E"/>
</g>
<defs>
<clipPath id="clip0_115_537">
<rect width="53" height="20" fill="white"/>
</clipPath>
</defs>
</svg>
