<?xml version="1.0" encoding="utf-8"?>
<!-- Generator: Adobe Illustrator 24.0.0, SVG Export Plug-In . SVG Version: 6.00 Build 0)  -->
<svg version="1.1" id="Camada_1" xmlns="http://www.w3.org/2000/svg" xmlns:xlink="http://www.w3.org/1999/xlink" x="0px" y="0px"
	 viewBox="0 0 37.8 35" style="enable-background:new 0 0 37.8 35;" xml:space="preserve">
<style type="text/css">
	.st0{fill:#6F6F6F;}
</style>
<path class="st0" d="M12.7,24.9c-2.6-0.4-4.5-1.7-5.6-4.1c0.8-0.1,1.6-0.1,2.4-0.2c0-0.1,0-0.1,0-0.2c-2.8-1-4.5-2.8-4.7-5.8
	c0.9,0.2,1.7,0.4,2.5,0.6c0-0.1,0.1-0.1,0.1-0.2c-2.6-2.2-3.2-4.8-1.8-8.1c3.5,4,7.8,6.1,13.1,6.5c0-1-0.2-1.8,0-2.6
	c1-4.7,6.5-6.5,10.2-3.5c0.5,0.4,0.9,0.5,1.4,0.3c1-0.4,2-0.7,3-1.1c-0.4,1.3-1.3,2.2-2.3,3c0,0.1,0.1,0.1,0.1,0.2
	c1-0.3,1.9-0.5,2.9-0.7c0,0,0.1,0.1,0.1,0.1c-0.8,0.8-1.6,1.5-2.4,2.4c-0.3,0.3-0.5,0.7-0.5,1c-0.3,6.9-3.2,12.4-9.4,15.6
	c-5.7,3-11.5,2.8-17.3-0.1c-0.1,0-0.1-0.1-0.2-0.1c0,0,0-0.1-0.1-0.2C7.4,27.6,10.3,26.9,12.7,24.9z"/>
</svg>
