<?xml version="1.0" encoding="utf-8"?>
<!-- Generator: Adobe Illustrator 24.0.0, SVG Export Plug-In . SVG Version: 6.00 Build 0)  -->
<svg version="1.1" id="Camada_1" xmlns="http://www.w3.org/2000/svg" xmlns:xlink="http://www.w3.org/1999/xlink" x="0px" y="0px"
	 viewBox="0 0 16 16" style="enable-background:new 0 0 16 16;" xml:space="preserve">
<style type="text/css">
	.st0{fill:none;}
	.st1{fill:#020203;filter:url(#Adobe_OpacityMaskFilter);}
	.st2{fill:#FFFFFF;}
	.st3{mask:url(#mask-2_2_);}
	.st4{fill-rule:evenodd;clip-rule:evenodd;fill:#50504F;}
</style>
<g>
	<g>
		<rect id="rect-1_1_" x="1.8" y="0.4" class="st0" width="12.5" height="15.4"/>
	</g>
	<defs>
		<filter id="Adobe_OpacityMaskFilter" filterUnits="userSpaceOnUse" x="1.8" y="0.4" width="12.5" height="15.4">
			<feColorMatrix  type="matrix" values="1 0 0 0 0  0 1 0 0 0  0 0 1 0 0  0 0 0 1 0"/>
		</filter>
	</defs>
	<mask maskUnits="userSpaceOnUse" x="1.8" y="0.4" width="12.5" height="15.4" id="mask-2_2_">
		<rect x="1.8" y="0.4" class="st1" width="12.5" height="15.4"/>
		<g>
			<rect id="rect-1_3_" x="1.8" y="0.4" class="st2" width="12.5" height="15.4"/>
		</g>
	</mask>
	<g class="st3">
		<path fill-rule="evenodd" clip-rule="evenodd" fill="#50504F" d="M11.5,3.7c0,1.9-1.5,3.4-3.4,3.4S4.7,5.6,4.7,3.7s1.5-3.4,3.4-3.4S11.5,1.9,11.5,3.7z"/>
		<path fill-rule="evenodd" clip-rule="evenodd" fill="#50504F" d="M14.4,14.2c0,2-12.5,2-12.5,0c0-3,2.8-5.2,6.3-5.2C11.6,9,14.4,11.3,14.4,14.2z"/>
	</g>
</g>
</svg>
