<svg width="47" height="16" viewBox="0 0 47 16" fill="none" xmlns="http://www.w3.org/2000/svg">
<g clip-path="url(#clip0_115_591)">
<path d="M20.3723 15.7416H16.5337L18.9325 0.267629H22.7712L20.3723 15.7416ZM13.3053 0.267629L9.64554 10.9098L9.21182 8.61707L7.9196 1.6592C7.9196 1.6592 7.7631 0.265283 6.09976 0.265283H0.0522544L-0.0192871 0.528109C-0.0192871 0.528109 1.82962 0.931736 3.99599 2.2975L7.33161 15.7439H11.3312L17.4369 0.269975L13.3053 0.267629ZM43.4937 15.7416H47.0193L43.9475 0.267629H40.8623C39.4382 0.267629 39.0894 1.41984 39.0894 1.41984L33.3661 15.7416H37.3679L38.1683 13.4442H43.0465L43.4937 15.7416ZM39.2705 10.2691L41.2871 4.47755L42.4205 10.2691H39.2705ZM33.6656 3.98944L34.2134 0.666562C34.2134 0.666562 32.5232 -0.00927734 30.7615 -0.00927734C28.8567 -0.00927734 24.3339 0.863682 24.3339 5.1135C24.3339 9.11222 29.6437 9.1615 29.6437 11.2618C29.6437 13.362 24.8817 12.9842 23.31 11.6607L22.7399 15.1361C22.7399 15.1361 24.4547 16.0091 27.0726 16.0091C29.6928 16.0091 33.6433 14.5846 33.6433 10.7103C33.6433 6.68576 28.2866 6.31264 28.2866 4.56203C28.2844 2.81376 32.0224 3.03904 33.6656 3.98944Z" fill="#4E4E4E"/>
<path d="M9.21405 8.6193L7.92183 1.66149C7.92183 1.66149 7.76533 0.267578 6.10199 0.267578H0.0522544L-0.0192871 0.530403C-0.0192871 0.530403 2.88933 1.164 5.67721 3.53176C8.34437 5.79628 9.21405 8.6193 9.21405 8.6193Z" fill="#7C7C7C"/>
</g>
<defs>
<clipPath id="clip0_115_591">
<rect width="47" height="16" fill="white"/>
</clipPath>
</defs>
</svg>
