<?xml version="1.0" encoding="utf-8"?>
<!-- Generator: Adobe Illustrator 24.0.0, SVG Export Plug-In . SVG Version: 6.00 Build 0)  -->
<svg version="1.1" id="Camada_1" xmlns="http://www.w3.org/2000/svg" xmlns:xlink="http://www.w3.org/1999/xlink" x="0px" y="0px"
	 viewBox="0 0 37.8 35" style="enable-background:new 0 0 37.8 35;" xml:space="preserve">
<style type="text/css">
	.st0{fill-rule:evenodd;clip-rule:evenodd;fill:#6F6F6F;}
</style>
<path class="st0" d="M26.1,20c0,2.2-1.9,3.7-5,3.7c-1.1,0-2.1-0.2-3.1-0.6l0.4-2.4l0.4,0.2c0.8,0.4,1.7,0.6,2.7,0.6
	c0.8,0,1.7-0.3,1.7-1c0-0.5-0.4-0.8-1.5-1.3s-2.5-1.4-2.5-2.9c0-2.1,2-3.5,4.9-3.5c0.9,0,1.7,0.1,2.5,0.4l-0.4,2.3l-0.3-0.1
	c-0.7-0.3-1.4-0.4-2.1-0.4c-1.1,0-1.6,0.5-1.6,0.9c0,0.5,0.6,0.8,1.6,1.3C25.3,17.9,26.1,18.8,26.1,20z M1,12.8
	c3,0.6,5.5,2.6,6.7,5.5l-1-4.8c-0.1-0.6-0.6-1-1.2-0.9H1V12.8z M1,12.8L1,12.8L1,12.8L1,12.8z M31.6,12.7h2.2l2.3,10.9h-2.6
	c0,0-0.3-1.2-0.3-1.6h-3.6c-0.1,0.3-0.6,1.6-0.6,1.6h-3l4.3-9.9C30.4,13,31,12.6,31.6,12.7z M17.9,12.7h-2.8l-1.9,10.9H16L17.9,12.7
	z M14,12.7L9.4,23.6h-3l-2.6-9.1c1.7,1.1,3,2.6,3.9,4.6L8,20.2l2.8-7.4H14V12.7z M31.5,16.7c0,0-0.9,2.4-1.1,3l0,0h2.4
	c-0.2-0.5-0.8-3.1-0.8-3.1l-0.2-0.9c-0.1,0.2-0.2,0.5-0.2,0.7C31.5,16.6,31.5,16.7,31.5,16.7z"/>
</svg>
