<svg width="37" height="37" viewBox="0 0 37 37" fill="none" xmlns="http://www.w3.org/2000/svg">
<path d="M14.025 34.8L1.825 22.7C0.725 21.6 0.725 19.7 1.825 18.6L19.425 1H34.925C35.325 1 35.725 1.3 35.725 1.8V17.3L18.125 34.8C16.925 36 15.125 36 14.025 34.8Z" stroke="#404041" stroke-width="2" stroke-miterlimit="10"/>
<path d="M28.6249 11.3C30.0608 11.3 31.2249 10.1359 31.2249 8.69998C31.2249 7.26403 30.0608 6.09998 28.6249 6.09998C27.189 6.09998 26.0249 7.26403 26.0249 8.69998C26.0249 10.1359 27.189 11.3 28.6249 11.3Z" stroke="#404041" stroke-width="2" stroke-miterlimit="10"/>
<path d="M13.9557 21.4187C11.2578 18.5916 10.7247 16.3623 12.3563 14.7306L12.4654 14.6216L14.9128 17.069C14.6463 17.3356 14.5211 17.7112 14.5372 18.1958C14.5615 18.6885 14.8563 19.2742 15.4217 19.9527L16.9968 18.3776L16.6091 17.9656C14.2505 15.4778 13.7295 13.5756 15.0461 12.2589L15.143 12.162C15.3854 11.9197 15.6237 11.7379 15.8579 11.6168C16.1164 11.5037 16.4274 11.435 16.7908 11.4108C17.1462 11.4108 17.542 11.4916 17.9782 11.6531C18.3659 11.7985 18.8627 12.0853 19.4685 12.5134C20.0097 12.893 20.6155 13.418 21.2859 14.0885L21.8554 13.519L22.8246 14.4883L22.2552 15.0578C22.8933 15.712 23.4143 16.3299 23.8182 16.9115C24.1978 17.485 24.4765 17.9979 24.6542 18.4503C24.8157 18.9187 24.8884 19.3307 24.8723 19.6861C24.8723 20.0738 24.8117 20.4009 24.6905 20.6675C24.5451 20.9421 24.3715 21.1804 24.1695 21.3824L24.0726 21.4793L21.6373 19.0439C22.1058 18.4462 21.8352 17.5941 20.8255 16.4875L19.517 17.796L19.9653 18.2685C21.3465 19.7305 22.1744 20.9139 22.449 21.8185C22.7398 22.7394 22.5339 23.5511 21.8311 24.2539L21.6979 24.3871C21.4475 24.6375 21.1809 24.8395 20.8982 24.9929C20.6478 25.1303 20.3085 25.2191 19.8804 25.2595C19.4685 25.2837 19.0323 25.211 18.5719 25.0414C18.16 24.8879 17.6188 24.581 16.9483 24.1206C16.3183 23.6844 15.6438 23.1069 14.925 22.388L14.3434 22.9696L13.3741 22.0003L13.9557 21.4187ZM17.6026 14.5246C17.5057 14.6216 17.4451 14.7468 17.4209 14.9002C17.4209 15.0456 17.5097 15.2799 17.6874 15.603C17.8571 15.918 18.1559 16.3138 18.584 16.7904L19.8804 15.4939C19.5089 15.1547 19.2342 14.9204 19.0565 14.7912C18.8304 14.6135 18.6365 14.4923 18.475 14.4277C18.3377 14.355 18.2044 14.3187 18.0751 14.3187C17.9459 14.3187 17.8571 14.3348 17.8086 14.3671C17.744 14.3994 17.6793 14.4479 17.6147 14.5125L17.6026 14.5246ZM19.1535 22.0124C19.3877 21.7781 19.4241 21.4752 19.2625 21.1037C19.109 20.724 18.6688 20.1465 17.9419 19.3711L16.3789 20.9341C16.8474 21.3702 17.223 21.6812 17.5057 21.867C17.8288 22.0932 18.0873 22.2224 18.2811 22.2547C18.5234 22.287 18.6931 22.287 18.79 22.2547C18.9112 22.2143 19.0202 22.1457 19.1171 22.0487L19.1535 22.0124Z" fill="#404041"/>
</svg>
