<svg width="48" height="36" viewBox="0 0 48 36" fill="none" xmlns="http://www.w3.org/2000/svg">
<path d="M40.1159 0.857971H7.97675C6.03937 0.85797 4.18123 1.60607 2.8106 2.9379C1.43996 4.26973 0.668963 6.07634 0.666992 7.96079V27.8588C0.668961 29.7439 1.43972 31.5513 2.81014 32.8842C4.18056 34.2172 6.03869 34.9669 7.97675 34.9688H40.1159C42.054 34.9669 43.9121 34.2172 45.2825 32.8842C46.6529 31.5513 47.4237 29.7439 47.4257 27.8588V7.96079C47.4237 6.07634 46.6527 4.26973 45.2821 2.9379C43.9114 1.60607 42.0533 0.85797 40.1159 0.857971ZM44.5033 27.8588C44.5013 28.99 44.0384 30.0743 43.2161 30.8742C42.3937 31.6741 41.2789 32.1244 40.1159 32.1263H7.97675C6.81376 32.1244 5.69896 31.6741 4.8766 30.8742C4.05424 30.0743 3.59138 28.99 3.58941 27.8588V7.96079C3.59138 6.83024 4.05449 5.74664 4.87706 4.9479C5.69963 4.14916 6.81444 3.70054 7.97675 3.70054H40.1159C41.2782 3.70054 42.393 4.14916 43.2156 4.9479C44.0382 5.74664 44.5013 6.83024 44.5033 7.96079V27.8588Z" fill="#404041" stroke="#404041" stroke-width="0.72" stroke-miterlimit="10"/>
<path d="M20.1052 18.6367H28.166C28.4224 18.6367 28.6683 18.7358 28.8496 18.9121C29.0309 19.0885 29.1327 19.3277 29.1327 19.577C29.1327 19.8264 29.0309 20.0656 28.8496 20.2419C28.6683 20.4183 28.4224 20.5173 28.166 20.5173H27.1993C26.7083 20.547 26.2473 20.7577 25.9103 21.1064C25.5734 21.4551 25.3858 21.9157 25.3858 22.3943C25.3858 22.8729 25.5734 23.3335 25.9103 23.6822C26.2473 24.0309 26.7083 24.2416 27.1993 24.2713H28.166C29.448 24.2713 30.6774 23.7759 31.5839 22.8942C32.4903 22.0125 32.9996 20.8167 32.9996 19.5698C32.9996 18.3229 32.4903 17.1271 31.5839 16.2454C30.6774 15.3637 29.448 14.8683 28.166 14.8683H20.1796L20.1052 18.6367Z" fill="#404041"/>
<path d="M13.9629 15.9823C13.8141 16.0779 13.6919 16.2079 13.6075 16.3606C13.523 16.5133 13.4788 16.6841 13.4788 16.8575C13.4788 17.031 13.523 17.2017 13.6075 17.3544C13.6919 17.5072 13.8141 17.6371 13.9629 17.7327C13.9629 17.7327 19.6813 21.7398 20.1051 21.7398L20.2316 14.1596V11.5557C19.8077 11.5557 13.9629 15.9823 13.9629 15.9823Z" fill="#404041"/>
</svg>
