<svg xmlns="http://www.w3.org/2000/svg" id="Layer_1" data-name="Layer 1" viewBox="0 0 140 110"><defs><style>.cls-1,.cls-2{fill:#404041;}.cls-1{stroke:#404041;stroke-miterlimit:10;stroke-width:1.84px;}</style></defs><title>Artboard 1 copy 2</title><path class="cls-1" d="M96,40.84V49c0,.94,0,1.88,0,2.82a4.15,4.15,0,0,1-1.34,2.89Q89.56,59.75,84.5,64.83L72.23,77.11c-.94.94-1.86,1.9-2.82,2.82a3.41,3.41,0,0,1-3.86.83,2.9,2.9,0,0,1-1-.65q-4.89-4.87-9.76-9.77c-3.25-3.25-6.48-6.51-9.75-9.74a3.51,3.51,0,0,1,0-5q12.74-12.66,25.41-25.4A3.9,3.9,0,0,1,73.31,29c3.29,0,6.59,0,9.88,0h8.64a3.92,3.92,0,0,1,3.61,2.09,4.49,4.49,0,0,1,.48,2.39c0,2.47,0,4.94,0,7.4ZM82.75,31.23h-3c-2.06,0-4.11,0-6.17,0a2.09,2.09,0,0,0-1.59.65q-4.75,4.8-9.54,9.56Q54.52,49.35,46.6,57.26a1.14,1.14,0,0,0,0,1.67L56.74,69,66,78.27c.07.07.13.14.2.2a1.1,1.1,0,0,0,1.53-.06q4.28-4.26,8.53-8.53l8-8,8.81-8.81a1.73,1.73,0,0,0,.53-1,9,9,0,0,0,.13-1.26c0-1.41,0-2.82,0-4.24,0-2.49,0-5,0-7.49V35.82c0-1,0-2,0-3A1.57,1.57,0,0,0,92,31.23C88.89,31.22,85.82,31.23,82.75,31.23Z"/><path class="cls-2" d="M84.48,35.63a4.77,4.77,0,1,1-4.77,4.73A4.79,4.79,0,0,1,84.48,35.63Zm0,7.13a2.36,2.36,0,0,0,2.39-2.37,2.39,2.39,0,0,0-4.78,0A2.35,2.35,0,0,0,84.47,42.76Z"/><path class="cls-2" d="M63.23,59.85q-6.06-6.32-2.39-10l.15-.15,3.65,3.65a2.17,2.17,0,0,0-.56,1.68,4.78,4.78,0,0,0,1.33,2.62l2.35-2.35-.59-.62q-5.28-5.56-2.33-8.52l.13-.13a4.44,4.44,0,0,1,1.08-.8,3.21,3.21,0,0,1,1.39-.3,4.73,4.73,0,0,1,1.77.34,10.31,10.31,0,0,1,2.22,1.28,23.18,23.18,0,0,1,2.71,2.36l.86-.85,1.44,1.44-.85.86a21.2,21.2,0,0,1,2.31,2.75,10.7,10.7,0,0,1,1.25,2.29,5.32,5.32,0,0,1,.35,1.84,3.51,3.51,0,0,1-.29,1.46,4,4,0,0,1-.78,1.08l-.14.15-3.63-3.64Q75.71,55,73.47,52.5l-2,2,.67.7q3.06,3.23,3.69,5.29A3.39,3.39,0,0,1,75,64.07l-.2.2a5.14,5.14,0,0,1-1.2.91,3.65,3.65,0,0,1-1.52.39,4.69,4.69,0,0,1-1.93-.32,10.94,10.94,0,0,1-2.42-1.37,23.19,23.19,0,0,1-3-2.59l-.88.88-1.44-1.44Zm5.16-9.72a2.26,2.26,0,0,0,.38,1A10.66,10.66,0,0,0,70.13,53L72.05,51A12.48,12.48,0,0,0,70.82,50a6,6,0,0,0-.87-.56,1.43,1.43,0,0,0-.59-.15,1,1,0,0,0-.4.07,1.31,1.31,0,0,0-.29.23h0A.9.9,0,0,0,68.39,50.13Zm2.74,9.26a10.4,10.4,0,0,0-2-2.59l-2.33,2.34a14.81,14.81,0,0,0,1.66,1.38,3.17,3.17,0,0,0,1.18.57,1.76,1.76,0,0,0,.73,0,1.11,1.11,0,0,0,.49-.3l.06-.06A1.15,1.15,0,0,0,71.13,59.39Z"/></svg>