<svg xmlns="http://www.w3.org/2000/svg" id="Layer_1" data-name="Layer 1" viewBox="0 0 140 110"><defs><style>.cls-1,.cls-2{fill:#404041;}.cls-2{stroke:#404041;stroke-miterlimit:10;}</style></defs><title>Artboard 1 copy</title><path class="cls-1" d="M64.3,61.76V58.94q3.6-.19,4.87-2.87h4V71H68.1V61.76Z"/><path class="cls-2" d="M70,82.39A18.83,18.83,0,1,1,88.83,63.56,18.86,18.86,0,0,1,70,82.39m0-34.24A15.41,15.41,0,1,0,85.41,63.56,15.43,15.43,0,0,0,70,48.15"/><path class="cls-2" d="M81.3,52.43a1.84,1.84,0,0,1-.33,0,1.71,1.71,0,0,1-1.35-2L83.33,31H56.67L60.38,50.4A1.71,1.71,0,1,1,57,51L52.91,29.65a1.76,1.76,0,0,1,.36-1.42,1.73,1.73,0,0,1,1.32-.62H85.41a1.73,1.73,0,0,1,1.32.62,1.76,1.76,0,0,1,.36,1.42L83,51a1.72,1.72,0,0,1-1.68,1.39"/><path class="cls-2" d="M65.89,48.67a1.73,1.73,0,0,1-1.71-1.62l-1-17.63a1.71,1.71,0,1,1,3.41-.2l1,17.64A1.7,1.7,0,0,1,66,48.66h-.1"/><path class="cls-2" d="M74.11,48.67H74a1.7,1.7,0,0,1-1.61-1.8l1-17.64a1.71,1.71,0,1,1,3.41.2l-1,17.63a1.73,1.73,0,0,1-1.71,1.62"/></svg>