<svg width="28" height="38" viewBox="0 0 28 38" fill="none" xmlns="http://www.w3.org/2000/svg">
<path d="M10.0074 23.7774V21.9712C11.6237 21.8901 12.7168 21.2773 13.287 20.1329H15.9807V29.6957H12.5664V23.7774H10.0074Z" fill="#404041"/>
<path d="M13.846 36.991C11.338 36.991 8.88632 36.2836 6.80102 34.9584C4.71572 33.6331 3.09042 31.7495 2.13066 29.5457C1.1709 27.3419 0.919783 24.9168 1.40906 22.5773C1.89835 20.2377 3.10605 18.0887 4.87946 16.402C6.65286 14.7152 8.91231 13.5666 11.3721 13.1012C13.8319 12.6358 16.3815 12.8747 18.6986 13.7875C21.0157 14.7004 22.9961 16.2462 24.3894 18.2296C25.7828 20.213 26.5265 22.5448 26.5265 24.9302C26.5212 28.1274 25.1835 31.1921 22.8066 33.4529C20.4296 35.7136 17.2074 36.9859 13.846 36.991ZM13.846 15.06C11.7935 15.06 9.78712 15.6389 8.08056 16.7234C6.374 17.808 5.04389 19.3495 4.25845 21.153C3.47301 22.9566 3.2675 24.9412 3.66791 26.8558C4.06833 28.7704 5.05669 30.5291 6.508 31.9095C7.95931 33.2899 9.80839 34.2299 11.8214 34.6108C13.8344 34.9916 15.921 34.7962 17.8172 34.0491C19.7135 33.3021 21.3342 32.037 22.4745 30.4138C23.6148 28.7907 24.2234 26.8824 24.2234 24.9302C24.2198 22.3135 23.1253 19.8049 21.18 17.9547C19.2346 16.1044 16.5971 15.0634 13.846 15.06Z" fill="#404041"/>
<path d="M13.846 15.06C11.7935 15.06 9.78712 15.6389 8.08056 16.7234C6.374 17.808 5.04389 19.3495 4.25845 21.153C3.47301 22.9566 3.2675 24.9412 3.66791 26.8558C4.06833 28.7704 5.05669 30.5291 6.508 31.9095C7.95931 33.2899 9.80839 34.2299 11.8214 34.6108C13.8344 34.9916 15.921 34.7962 17.8172 34.0491C19.7135 33.3021 21.3342 32.037 22.4745 30.4138C23.6148 28.7907 24.2234 26.8824 24.2234 24.9302C24.2198 22.3135 23.1253 19.8049 21.18 17.9547C19.2346 16.1044 16.5971 15.0634 13.846 15.06M13.846 36.991C11.338 36.991 8.88632 36.2836 6.80102 34.9584C4.71572 33.6331 3.09042 31.7495 2.13066 29.5457C1.1709 27.3419 0.919783 24.9168 1.40906 22.5773C1.89835 20.2377 3.10605 18.0887 4.87946 16.402C6.65286 14.7152 8.91231 13.5666 11.3721 13.1012C13.8319 12.6358 16.3815 12.8747 18.6986 13.7875C21.0157 14.7004 22.9961 16.2462 24.3894 18.2296C25.7828 20.213 26.5265 22.5448 26.5265 24.9302C26.5212 28.1274 25.1835 31.1921 22.8066 33.4528C20.4296 35.7136 17.2074 36.9859 13.846 36.991V36.991Z" stroke="#404041" stroke-width="2" stroke-miterlimit="10"/>
<path d="M21.4557 17.8014C21.3818 17.8077 21.3074 17.8077 21.2334 17.8014C20.9346 17.7456 20.6712 17.5795 20.5008 17.3394C20.3304 17.0993 20.267 16.8048 20.3243 16.5204L22.8227 4.07531H4.86929L7.36769 16.5012C7.42127 16.7883 7.35275 17.0838 7.1772 17.3229C7.00166 17.5619 6.73347 17.7248 6.43163 17.7758C6.12979 17.8267 5.81903 17.7616 5.56771 17.5946C5.31639 17.4276 5.1451 17.1726 5.09152 16.8855L2.33722 3.21063C2.30659 3.05136 2.31238 2.88768 2.35422 2.73074C2.39605 2.57379 2.47294 2.42726 2.57965 2.30111C2.68849 2.17735 2.82443 2.0777 2.97797 2.00911C3.1315 1.94052 3.29894 1.90464 3.46857 1.90399H24.2234C24.3931 1.90464 24.5605 1.94052 24.714 2.00911C24.8676 2.0777 25.0035 2.17735 25.1124 2.30111C25.2191 2.42726 25.296 2.57379 25.3378 2.73074C25.3796 2.88768 25.3854 3.05136 25.3548 3.21063L22.6005 16.8855C22.5491 17.1354 22.4084 17.3606 22.2021 17.5229C21.9958 17.6852 21.7368 17.7746 21.4691 17.7758" fill="#404041"/>
<path d="M21.4557 17.8014C21.3818 17.8077 21.3074 17.8077 21.2335 17.8014C20.9346 17.7456 20.6712 17.5795 20.5008 17.3394C20.3304 17.0993 20.267 16.8048 20.3243 16.5204L22.8227 4.07531H4.86929L7.36769 16.5012C7.42127 16.7883 7.35275 17.0838 7.1772 17.3229C7.00166 17.5619 6.73347 17.7248 6.43163 17.7758C6.12979 17.8267 5.81903 17.7616 5.56771 17.5946C5.31639 17.4276 5.1451 17.1726 5.09152 16.8855L2.33722 3.21063C2.30659 3.05136 2.31238 2.88768 2.35422 2.73074C2.39605 2.57379 2.47294 2.42726 2.57965 2.30111C2.68849 2.17735 2.82443 2.0777 2.97797 2.00911C3.1315 1.94052 3.29894 1.90464 3.46857 1.90399H24.2234C24.3931 1.90464 24.5605 1.94052 24.714 2.00911C24.8676 2.0777 25.0035 2.17735 25.1124 2.30111C25.2191 2.42726 25.296 2.57379 25.3378 2.73074C25.3796 2.88768 25.3854 3.05136 25.3548 3.21063L22.6005 16.8855C22.5491 17.1354 22.4084 17.3606 22.2021 17.5229C21.9958 17.6852 21.7368 17.7746 21.4691 17.7758" stroke="#404041" stroke-width="2" stroke-miterlimit="10"/>
<path d="M11.0782 15.393C10.784 15.3903 10.5017 15.2818 10.2881 15.0894C10.0745 14.8969 9.94538 14.6347 9.92669 14.3554L9.25327 3.0632C9.23648 2.91569 9.25139 2.76648 9.29707 2.62461C9.34275 2.48275 9.41826 2.35119 9.51902 2.23792C9.61978 2.12466 9.74368 2.03204 9.88321 1.9657C10.0227 1.89935 10.175 1.86066 10.3307 1.85198C10.4864 1.84329 10.6424 1.86479 10.7891 1.91516C10.9358 1.96554 11.0703 2.04374 11.1843 2.14503C11.2983 2.24632 11.3894 2.36858 11.4522 2.50439C11.515 2.6402 11.5482 2.78673 11.5496 2.9351L12.2231 14.2337C12.2415 14.5215 12.1391 14.8046 11.9384 15.0207C11.7376 15.2369 11.4549 15.3684 11.1523 15.3866H11.085" fill="#404041"/>
<path d="M11.0782 15.393C10.784 15.3903 10.5017 15.2818 10.2881 15.0894C10.0745 14.8969 9.94538 14.6347 9.92669 14.3554L9.25327 3.0632C9.23648 2.91569 9.25139 2.76648 9.29707 2.62461C9.34275 2.48275 9.41826 2.35119 9.51902 2.23792C9.61978 2.12466 9.74368 2.03204 9.88321 1.9657C10.0227 1.89935 10.175 1.86066 10.3307 1.85198C10.4864 1.84329 10.6424 1.86479 10.7891 1.91516C10.9358 1.96554 11.0703 2.04374 11.1843 2.14503C11.2983 2.24632 11.3894 2.36858 11.4522 2.50439C11.515 2.6402 11.5482 2.78673 11.5496 2.9351L12.2231 14.2337C12.2415 14.5215 12.1391 14.8046 11.9384 15.0207C11.7376 15.2369 11.4549 15.3684 11.1523 15.3866H11.085" stroke="#404041" stroke-width="2" stroke-miterlimit="10"/>
<path d="M16.6137 15.393H16.5397C16.3886 15.3856 16.2407 15.3499 16.1042 15.2878C15.9678 15.2258 15.8457 15.1387 15.7449 15.0315C15.6441 14.9243 15.5666 14.7991 15.5169 14.6633C15.4672 14.5275 15.4463 14.3836 15.4554 14.2401L16.1289 2.94151C16.1303 2.79314 16.1635 2.64661 16.2263 2.5108C16.2891 2.37499 16.3802 2.25273 16.4942 2.15144C16.6082 2.05015 16.7426 1.97195 16.8894 1.92157C17.0361 1.87119 17.1921 1.8497 17.3478 1.85839C17.5035 1.86707 17.6558 1.90576 17.7953 1.97211C17.9348 2.03845 18.0587 2.13107 18.1595 2.24433C18.2602 2.3576 18.3357 2.48916 18.3814 2.63102C18.4271 2.77289 18.442 2.9221 18.4252 3.06961L17.7518 14.3618C17.7331 14.6411 17.604 14.9033 17.3904 15.0958C17.1768 15.2882 16.8945 15.3967 16.6003 15.3994" fill="#404041"/>
<path d="M16.6137 15.393H16.5397C16.3886 15.3856 16.2407 15.3499 16.1042 15.2878C15.9678 15.2258 15.8457 15.1387 15.7449 15.0315C15.6441 14.9243 15.5666 14.7991 15.5169 14.6633C15.4672 14.5275 15.4463 14.3836 15.4554 14.2401L16.1289 2.94151C16.1303 2.79314 16.1635 2.64661 16.2263 2.5108C16.2891 2.37499 16.3802 2.25273 16.4942 2.15144C16.6082 2.05015 16.7426 1.97195 16.8894 1.92157C17.0361 1.87119 17.1921 1.8497 17.3478 1.85839C17.5035 1.86707 17.6558 1.90576 17.7953 1.97211C17.9348 2.03845 18.0587 2.13107 18.1595 2.24433C18.2602 2.3576 18.3357 2.48916 18.3814 2.63102C18.4271 2.77289 18.442 2.9221 18.4252 3.06961L17.7518 14.3618C17.7331 14.6411 17.604 14.9033 17.3904 15.0958C17.1768 15.2882 16.8945 15.3967 16.6003 15.3994" stroke="#404041" stroke-width="2" stroke-miterlimit="10"/>
</svg>
