<?xml version="1.0" encoding="utf-8"?>
<!-- Generator: Adobe Illustrator 25.1.0, SVG Export Plug-In . SVG Version: 6.00 Build 0)  -->
<svg version="1.1" id="Layer_1" xmlns="http://www.w3.org/2000/svg" xmlns:xlink="http://www.w3.org/1999/xlink" x="0px" y="0px"
	 viewBox="0 0 425.5 35.8" style="enable-background:new 0 0 425.5 35.8;" xml:space="preserve">
<style type="text/css">
	.st0{fill:#EA002A;}
	.st1{fill:#FFFFFF;}
</style>
<g>
	<path class="st0" d="M0,31.6C5.4,18.1,19.6,6,28.3,5.8c-0.7,2-0.8,2.9-0.9,3.7c-0.6,5.7,1.9,9.5,8.3,12.1c1.1,0.5,2.3,0.9,3.5,1.2
		c6.8,1.8,9.4,2.5,15.1,3.8c2.2,0.5,6.8,1,5.7,5.1c-0.8,2.7-3.6,3.7-6.5,3.9c-6.1,0.6-12.6-1.3-19.1-3.2c-9.1-2.7-17.1-4.7-28-3.1
		C2.9,30,2.2,30.4,0,31.6"/>
	<path class="st0" d="M99.4,7.7C93.9,21.3,79.7,33.3,71,33.6c0.7-2,0.8-2.9,0.9-3.8c0.6-5.7-1.9-9.5-8.3-12.1
		c-1.2-0.5-2.3-0.9-3.5-1.2c-6.8-1.8-9.4-2.5-15.1-3.8c-2.2-0.5-6.8-1-5.7-5.1c0.8-2.7,3.6-3.7,6.5-3.9C52,3,58.5,4.9,65,6.8
		c9.1,2.7,17.1,4.7,28,3.1C96.5,9.4,97.2,9,99.4,7.7"/>
	<path d="M124.1,0.1c-1.6,0.1-3,0.5-4.4,1.3c-3.4,1.9-5.7,4.7-6.1,8.7c-0.3,2.6,0.6,4.8,2.7,6.5c1.4,1.2,3.2,1.7,5,1.7
		c3.8,0,7.6,0,11.4,0c2.1,0,3.4,1.8,2.8,3.8c-0.5,1.8-2.3,3-4.2,3c-5.6,0-11.2,0-16.8,0c-2,0-3.8,1.5-4.2,3.4
		c-0.1,0.4-0.1,0.8-0.2,1.2c-0.1,0.7-0.4,2.2-0.4,2.3c6.9,0,13.7,0,20.6,0c0.7,0,1.5-0.1,2.2-0.2c2.9-0.6,5.3-2.1,7.2-4.3
		c2.1-2.4,3.2-5.2,2.8-8.5c-0.3-2.5-1.5-4.5-3.6-6c-1.6-1.1-3.3-1.5-5.2-1.5c-3.7,0-7.3,0-11,0c-0.2,0-0.4,0-0.5,0
		c-1.1-0.1-1.9-1.1-1.7-2.2c0.3-1.4,1.5-2.4,2.9-2.4c5.7,0,11.3,0,17,0c1.8,0,3.1-0.6,4.1-1.8c0.8-0.9,1.2-1.9,1.4-3
		c0.2-0.8,0.2-1.1,0.4-2H124.1z"/>
	<path d="M177.7,2.1c-1.5-1.3-3.2-1.8-5.1-2h-21.2c-0.5,3.2-0.9,5.7-1.4,8.3c-0.6,3.7-3.2,18.3-3.9,21.9c-0.1,0.5-0.2,1-0.3,1.6h3.2
		c2.1,0,3.9-1.5,4.2-3.6c0.3-1.6,3.4-19.2,3.8-21.5c0.1,0,13.9,0,13.9,0c1.7,0,2.8,1.1,2.9,2.7c0.1,1.3-0.5,2.4-1.5,3.2
		c-0.8,0.7-1.6,1-2.7,1c-2.4,0-4.5,0-6,0c-2,0-3.7,1.2-4.1,3.3c-0.1,0.4-0.2,0.8-0.2,1.2c-0.1,0.7-0.4,2.1-0.4,2.3h8.8
		c0,0,2.1,0,3.1-0.2c3.1-0.7,5.6-2.3,7.5-4.7c1.8-2.2,2.8-4.8,2.5-7.7C180.5,5.6,179.5,3.6,177.7,2.1"/>
	<path d="M250.1,15.8c2.2-3,3-5.5,2.6-8.3c-0.3-2.3-1.2-4-2.9-5.4c-1.6-1.3-3.2-1.9-5.3-2h-21.1c-1.9,10.6-3.7,21.2-5.6,31.8h3.3
		c2,0,3.7-1.4,4.1-3.4c0.5-2.6,3.5-19.9,3.9-21.8c4.6,0,9.1,0,13.7,0c1.1,0,2,0.3,2.6,1.3c0.6,1,0.5,2.1,0,3.1
		c-0.8,1.5-1.9,2.2-3.7,2.4c-0.1,0-5.5,0.1-7,5.1c-0.7,2.3-0.2,4.7,1.2,6.5c1.3,1.6,2.7,3.4,3.6,4.6c1,1.3,2.4,2,4,2
		c2.3,0,7.1,0,7.1,0c-3-3.8-6-7.6-9-11.4C244.4,19.8,248.3,18.2,250.1,15.8"/>
	<path d="M259.4,0.1c-1.7,0-3.4,1.3-3.7,3.3c-0.1,0.4-0.1,0.8-0.2,1.2c-0.1,0.7-0.4,2.2-0.4,2.3c0.5,0,8.7,0,10.2,0
		c-0.1,0.8-2.9,16.9-4.4,25.1h3.3c2.1,0,3.8-1.3,4.2-3.5c0.6-3.3,3.6-20.4,3.8-21.5c2.7,0,6.4,0,6.6,0c1.7,0,3.1-0.6,4.1-1.8
		c1.2-1.6,1.7-4.3,1.8-4.9H259.4z"/>
	<path d="M313.8,13.7c0,0-0.1-0.1-0.1-0.2c0.1-0.1,0.2-0.3,0.2-0.4c1.3-2,1.9-4.2,1.7-6.6c-0.2-1.9-1-3.5-2.5-4.7
		c-1.5-1.3-3.3-1.8-5.2-1.8h-18.5c-1.2,6.9-5,28-5.6,31.8h4c1.7-0.3,3.1-1.7,3.5-3.5c0.2-1.2,3.6-20.8,3.7-21.6c0,0,0.1,0,0.3,0
		c3.8,0,7.6,0,11.5,0c1.4,0,2.3,1.3,1.9,2.6c-0.3,0.8-0.9,1.6-2.4,2c-5.3,0-8,1.2-8,6.7v0.1h8.1c0.5,0,1,0.1,1.5,0.3
		c1.8,0.7,2.5,2.5,1.5,4.2c-0.9,1.5-2.6,2.4-4,2.4c-0.3,0-3.9,0-4.9,0c-2,0-3.8,1.4-4.2,3.4c-0.1,0.4-0.1,0.8-0.2,1.2
		c-0.1,0.7-0.4,1.9-0.4,2.2h8.2c2.8-0.2,5.6-1.2,7.9-2.8c0.4-0.3,0.8-0.6,1.1-0.9c2.1-2,3.5-4.5,3.8-7.4
		C316.8,18,315.9,15.6,313.8,13.7"/>
	<path d="M350.8,15.8c2.2-3,3-5.5,2.6-8.3c-0.3-2.3-1.2-4-2.9-5.4c-1.6-1.3-3.2-1.9-5.3-2h-21.1c-1.9,10.6-3.7,21.2-5.6,31.8h3.3
		c2,0,3.7-1.4,4.1-3.4c0.5-2.6,3.5-19.9,3.9-21.8c4.6,0,9.1,0,13.7,0c1.1,0,2,0.3,2.6,1.3c0.6,1,0.5,2.1,0,3.1
		c-0.8,1.5-1.9,2.2-3.7,2.4c-0.1,0-5.5,0.1-7,5.1c-0.7,2.3-0.2,4.7,1.2,6.5c1.3,1.6,2.7,3.4,3.6,4.6c1,1.3,2.4,2,4,2
		c2.3,0,7.1,0,7.1,0c-3-3.8-6-7.6-9-11.4C345.1,19.8,349,18.2,350.8,15.8"/>
	<path d="M378.1,0.1h-2.4c-0.1,0-0.2,0-0.3,0H371c-1.2,0-2.2,0.7-2.8,1.7c0,0-14.9,30-14.9,30.1c1.4,0,4.2,0,4.7,0
		c1.8,0,4-1.4,4.9-3.4c1.2-2.5,9.2-19.2,10.5-21.6c0.3,0.9,1.3,5.8,2.4,10.7c-3.3,0-5.1,0.8-5.5,3.2c-0.1,0.4-0.1,0.8-0.2,1.2
		c-0.1,0.8-0.3,1.5-0.4,2.3c2.5,0,5,0,7.5,0c0.5,2.2,0.8,3.8,0.9,4.1c0.4,1.6,1.8,3.1,3.7,3.4c0.3,0,0.6,0.1,1,0.1h3.9
		c-0.2-0.6-3.1-11-4.6-16.3C381.3,13,378.1,0.1,378.1,0.1"/>
	<path d="M404.1,0.1c-2.3,0-3.9,0.5-5.7,1.5c-3.1,1.9-5.3,4.6-5.6,8.4c-0.4,3.6,1.8,7.1,5.5,8c0.7,0.2,1.5,0.3,2.3,0.3
		c3.8,0,7.6,0,11.3,0c0.6,0,1.2,0.1,1.8,0.5c1.2,0.8,1.6,2.4,0.9,3.8c-0.8,1.7-2.1,2.6-4,2.6c-5.6,0-11.3,0-16.9,0
		c-1.9,0-3.7,1.3-4.1,3.2c-0.3,1.2-0.4,2.4-0.7,3.6h21.4c0.5,0,0.9-0.1,1.3-0.2c2.9-0.6,5.3-2.1,7.2-4.3c2.1-2.4,3.2-5.2,2.8-8.5
		c-0.3-2.5-1.5-4.5-3.6-6c-1.6-1.1-3-1.5-5.2-1.5c-3.8,0-11.3,0-11.5,0c-1.1-0.1-1.9-1.1-1.7-2.2c0.3-1.4,1.5-2.4,2.9-2.4
		c5.6,0,11.3,0,17,0c1.6,0,3-0.6,4-1.8c1.3-1.5,1.6-4.1,1.8-5C425.3,0.1,411,0.1,404.1,0.1"/>
	<path d="M206.9,0.7c-1.6-0.5-8.7-2.1-15.1,2c-5.1,3.3-8.6,7.6-9.6,13.7c-0.4,2.3-0.3,4.5,0.5,6.7c1.6,4.7,4.9,7.5,9.7,8.5
		c4.6,1,8.8-0.2,10.9-1c2.6-1,4.8-2.5,6.8-4.5c2.5-2.5,4.3-5.4,5.2-8.8c0.7-2.6,0.8-5.2,0.1-7.8C214.1,5.2,211.3,2.2,206.9,0.7
		 M207,20.2c-1.7,2.5-4.1,4.2-7.1,4.7c-2.3,0.4-4.3,0.5-6.3-0.3c-2.8-1.1-4.4-3.2-4.7-6.2c-0.3-3.3,1-6,3.3-8.3
		c1.7-1.7,3.8-2.6,6.3-3.2c2.3-0.5,4.5,0,5.7,0.4c2.8,1.1,4.4,3.2,4.7,6.2C209.1,16,208.4,18.2,207,20.2"/>
</g>
</svg>
