<svg xmlns="http://www.w3.org/2000/svg" id="Layer_1" data-name="Layer 1" viewBox="0 0 140 110"><defs><style>.cls-1{fill:#404041;}</style></defs><title>Artboard 1</title><path class="cls-1" d="M77.16,54c.09-.44.21-.87.26-1.3a3.22,3.22,0,0,0-1.24-3.12,7.1,7.1,0,0,0-2.7-1.25l-5.69-1.43A2.89,2.89,0,0,1,67,46.6a1,1,0,0,1-.45-1.16,1.66,1.66,0,0,1,1.06-1.14A4.71,4.71,0,0,1,69.07,44a15.7,15.7,0,0,1,5.13.82c1.45.42,2.89.88,4.38,1.17a17,17,0,0,0,4.22.29A11.36,11.36,0,0,0,85.2,46a13,13,0,0,0,1.31-.49,1.31,1.31,0,0,1-.05.15,15.38,15.38,0,0,1-2.69,4.19,14.84,14.84,0,0,1-4.26,3.46,5.69,5.69,0,0,1-2.27.71Z"/><path class="cls-1" d="M53.49,53.36a13.49,13.49,0,0,1,1.13-2.21,16.62,16.62,0,0,1,5.3-5.32,7.24,7.24,0,0,1,2.35-1c.2,0,.41-.06.64-.09-.08.29-.16.55-.22.81a3.55,3.55,0,0,0,.43,2.84,3.92,3.92,0,0,0,1.35,1.21,9.75,9.75,0,0,0,2.49.94l5.3,1.33a3.19,3.19,0,0,1,.79.32.94.94,0,0,1,.43,1.11,1.63,1.63,0,0,1-1,1.14,3.77,3.77,0,0,1-1.36.29,11.35,11.35,0,0,1-3.53-.36c-1.5-.4-3-.83-4.48-1.24a18.58,18.58,0,0,0-5.4-.69,12.58,12.58,0,0,0-2.87.34,10,10,0,0,0-1.14.45Z"/><path class="cls-1" d="M93.05,61H86.19a2,2,0,0,0-2,2v3.07a2,2,0,0,0,2,2h6.86a2,2,0,0,0,2-2V63A2,2,0,0,0,93.05,61Zm-.32,4a1.31,1.31,0,0,1-1.31,1.31h-3.6A1.31,1.31,0,0,1,86.51,65V64a1.31,1.31,0,0,1,1.31-1.31h3.6A1.31,1.31,0,0,1,92.73,64Z"/><rect class="cls-1" x="44.94" y="65.76" width="32" height="2.31" rx="1.15"/><rect class="cls-1" x="44.94" y="60.97" width="32" height="2.31" rx="1.15"/><path class="cls-1" d="M99.05,77.34H41a6.71,6.71,0,0,1-6.7-6.7V39.36a6.71,6.71,0,0,1,6.7-6.7h58.1a6.71,6.71,0,0,1,6.7,6.7V70.64a6.71,6.71,0,0,1-6.7,6.7M41,37.12a2.24,2.24,0,0,0-2.23,2.24V70.64A2.24,2.24,0,0,0,41,72.88h58.1a2.24,2.24,0,0,0,2.23-2.24V39.36a2.24,2.24,0,0,0-2.23-2.24Z"/></svg>