<svg width="50" height="37" viewBox="0 0 50 37" fill="none" xmlns="http://www.w3.org/2000/svg">
<path d="M41.1159 1.85797H8.97675C7.03937 1.85797 5.18123 2.60607 3.8106 3.9379C2.43996 5.26973 1.66896 7.07634 1.66699 8.96079V28.8588C1.66896 30.7439 2.43972 32.5513 3.81014 33.8842C5.18056 35.2172 7.03869 35.9669 8.97675 35.9688H41.1159C43.054 35.9669 44.9121 35.2172 46.2825 33.8842C47.6529 32.5513 48.4237 30.7439 48.4257 28.8588V8.96079C48.4237 7.07634 47.6527 5.26973 46.2821 3.9379C44.9114 2.60607 43.0533 1.85797 41.1159 1.85797ZM45.5033 28.8588C45.5013 29.99 45.0384 31.0743 44.2161 31.8742C43.3937 32.6741 42.2789 33.1244 41.1159 33.1263H8.97675C7.81376 33.1244 6.69896 32.6741 5.8766 31.8742C5.05424 31.0743 4.59138 29.99 4.58941 28.8588V8.96079C4.59138 7.83024 5.05449 6.74664 5.87706 5.9479C6.69963 5.14916 7.81444 4.70054 8.97675 4.70054H41.1159C42.2782 4.70054 43.393 5.14916 44.2156 5.9479C45.0382 6.74664 45.5013 7.83024 45.5033 8.96079V28.8588Z" fill="#404041" stroke="#404041" stroke-width="2" stroke-miterlimit="10"/>
<path d="M21.1052 19.6367H29.166C29.4224 19.6367 29.6683 19.7358 29.8496 19.9121C30.0309 20.0885 30.1327 20.3277 30.1327 20.577C30.1327 20.8264 30.0309 21.0656 29.8496 21.2419C29.6683 21.4183 29.4224 21.5173 29.166 21.5173H28.1993C27.7083 21.547 27.2473 21.7577 26.9103 22.1064C26.5734 22.4551 26.3858 22.9157 26.3858 23.3943C26.3858 23.8729 26.5734 24.3335 26.9103 24.6822C27.2473 25.0309 27.7083 25.2416 28.1993 25.2713H29.166C30.448 25.2713 31.6774 24.7759 32.5839 23.8942C33.4903 23.0125 33.9996 21.8167 33.9996 20.5698C33.9996 19.3229 33.4903 18.1271 32.5839 17.2454C31.6774 16.3637 30.448 15.8683 29.166 15.8683H21.1796L21.1052 19.6367Z" fill="#404041"/>
<path d="M14.9629 16.9823C14.8141 17.0779 14.6919 17.2079 14.6075 17.3606C14.523 17.5133 14.4788 17.6841 14.4788 17.8575C14.4788 18.031 14.523 18.2017 14.6075 18.3544C14.6919 18.5072 14.8141 18.6371 14.9629 18.7327C14.9629 18.7327 20.6813 22.7398 21.1051 22.7398L21.2316 15.1596V12.5557C20.8077 12.5557 14.9629 16.9823 14.9629 16.9823Z" fill="#404041"/>
</svg>
