<svg width="28" height="37" viewBox="0 0 28 37" fill="none" xmlns="http://www.w3.org/2000/svg">
<path d="M10.0074 22.7774V20.9712C11.6237 20.8901 12.7168 20.2773 13.287 19.1329H15.9807V28.6957H12.5664V22.7774H10.0074Z" fill="#404041"/>
<path d="M13.846 35.991C11.338 35.991 8.88632 35.2836 6.80102 33.9584C4.71572 32.6331 3.09042 30.7495 2.13066 28.5457C1.1709 26.3419 0.919783 23.9168 1.40906 21.5773C1.89835 19.2377 3.10605 17.0887 4.87946 15.402C6.65286 13.7152 8.91231 12.5666 11.3721 12.1012C13.8319 11.6358 16.3815 11.8747 18.6986 12.7875C21.0157 13.7004 22.9961 15.2462 24.3894 17.2296C25.7828 19.213 26.5265 21.5448 26.5265 23.9302C26.5212 27.1274 25.1835 30.1921 22.8066 32.4529C20.4296 34.7136 17.2074 35.9859 13.846 35.991ZM13.846 14.06C11.7935 14.06 9.78712 14.6389 8.08056 15.7234C6.374 16.808 5.04389 18.3495 4.25845 20.153C3.47301 21.9566 3.2675 23.9412 3.66791 25.8558C4.06833 27.7704 5.05669 29.5291 6.508 30.9095C7.95931 32.2899 9.80839 33.2299 11.8214 33.6108C13.8344 33.9916 15.921 33.7962 17.8172 33.0491C19.7135 32.3021 21.3342 31.037 22.4745 29.4138C23.6148 27.7907 24.2234 25.8824 24.2234 23.9302C24.2198 21.3135 23.1253 18.8049 21.18 16.9547C19.2346 15.1044 16.5971 14.0634 13.846 14.06Z" fill="#404041"/>
<path d="M13.846 14.06C11.7935 14.06 9.78712 14.6389 8.08056 15.7234C6.374 16.808 5.04389 18.3495 4.25845 20.153C3.47301 21.9566 3.2675 23.9412 3.66791 25.8558C4.06833 27.7704 5.05669 29.5291 6.508 30.9095C7.95931 32.2899 9.80839 33.2299 11.8214 33.6108C13.8344 33.9916 15.921 33.7962 17.8172 33.0491C19.7135 32.3021 21.3342 31.037 22.4745 29.4138C23.6148 27.7907 24.2234 25.8824 24.2234 23.9302C24.2198 21.3135 23.1253 18.8049 21.18 16.9547C19.2346 15.1044 16.5971 14.0634 13.846 14.06M13.846 35.991C11.338 35.991 8.88632 35.2836 6.80102 33.9584C4.71572 32.6331 3.09042 30.7495 2.13066 28.5457C1.1709 26.3419 0.919783 23.9168 1.40906 21.5773C1.89835 19.2377 3.10605 17.0887 4.87946 15.402C6.65286 13.7152 8.91231 12.5666 11.3721 12.1012C13.8319 11.6358 16.3815 11.8747 18.6986 12.7875C21.0157 13.7004 22.9961 15.2462 24.3894 17.2296C25.7828 19.213 26.5265 21.5448 26.5265 23.9302C26.5212 27.1274 25.1835 30.1921 22.8066 32.4528C20.4296 34.7136 17.2074 35.9859 13.846 35.991V35.991Z" stroke="#404041" stroke-miterlimit="10"/>
<path d="M21.4557 16.8014C21.3818 16.8077 21.3074 16.8077 21.2334 16.8014C20.9346 16.7456 20.6712 16.5795 20.5008 16.3394C20.3304 16.0993 20.267 15.8048 20.3243 15.5204L22.8227 3.07531H4.86929L7.36769 15.5012C7.42127 15.7883 7.35275 16.0838 7.1772 16.3229C7.00166 16.5619 6.73347 16.7248 6.43163 16.7758C6.12979 16.8267 5.81903 16.7616 5.56771 16.5946C5.31639 16.4276 5.1451 16.1726 5.09152 15.8855L2.33722 2.21063C2.30659 2.05136 2.31238 1.88768 2.35422 1.73074C2.39605 1.57379 2.47294 1.42726 2.57965 1.30111C2.68849 1.17735 2.82443 1.0777 2.97797 1.00911C3.1315 0.940515 3.29894 0.904641 3.46857 0.903992H24.2234C24.3931 0.904641 24.5605 0.940515 24.714 1.00911C24.8676 1.0777 25.0035 1.17735 25.1124 1.30111C25.2191 1.42726 25.296 1.57379 25.3378 1.73074C25.3796 1.88768 25.3854 2.05136 25.3548 2.21063L22.6005 15.8855C22.5491 16.1354 22.4084 16.3606 22.2021 16.5229C21.9958 16.6852 21.7368 16.7746 21.4691 16.7758" fill="#404041"/>
<path d="M21.4557 16.8014C21.3818 16.8077 21.3074 16.8077 21.2335 16.8014C20.9346 16.7456 20.6712 16.5795 20.5008 16.3394C20.3304 16.0993 20.267 15.8048 20.3243 15.5204L22.8227 3.07531H4.86929L7.36769 15.5012C7.42127 15.7883 7.35275 16.0838 7.1772 16.3229C7.00166 16.5619 6.73347 16.7248 6.43163 16.7758C6.12979 16.8267 5.81903 16.7616 5.56771 16.5946C5.31639 16.4276 5.1451 16.1726 5.09152 15.8855L2.33722 2.21063C2.30659 2.05136 2.31238 1.88768 2.35422 1.73074C2.39605 1.57379 2.47294 1.42726 2.57965 1.30111C2.68849 1.17735 2.82443 1.0777 2.97797 1.00911C3.1315 0.940515 3.29894 0.904641 3.46857 0.903992H24.2234C24.3931 0.904641 24.5605 0.940515 24.714 1.00911C24.8676 1.0777 25.0035 1.17735 25.1124 1.30111C25.2191 1.42726 25.296 1.57379 25.3378 1.73074C25.3796 1.88768 25.3854 2.05136 25.3548 2.21063L22.6005 15.8855C22.5491 16.1354 22.4084 16.3606 22.2021 16.5229C21.9958 16.6852 21.7368 16.7746 21.4691 16.7758" stroke="#404041" stroke-miterlimit="10"/>
<path d="M11.0782 14.393C10.784 14.3903 10.5017 14.2818 10.2881 14.0894C10.0745 13.8969 9.94538 13.6347 9.92669 13.3554L9.25327 2.0632C9.23648 1.91569 9.25139 1.76648 9.29707 1.62461C9.34275 1.48275 9.41826 1.35119 9.51902 1.23792C9.61978 1.12466 9.74368 1.03204 9.88321 0.965697C10.0227 0.899353 10.175 0.860664 10.3307 0.851977C10.4864 0.84329 10.6424 0.864786 10.7891 0.915162C10.9358 0.965537 11.0703 1.04374 11.1843 1.14503C11.2983 1.24632 11.3894 1.36858 11.4522 1.50439C11.515 1.6402 11.5482 1.78673 11.5496 1.9351L12.2231 13.2337C12.2415 13.5215 12.1391 13.8046 11.9384 14.0207C11.7376 14.2369 11.4549 14.3684 11.1523 14.3866H11.085" fill="#404041"/>
<path d="M11.0782 14.393C10.784 14.3903 10.5017 14.2818 10.2881 14.0894C10.0745 13.8969 9.94538 13.6347 9.92669 13.3554L9.25327 2.0632C9.23648 1.91569 9.25139 1.76648 9.29707 1.62461C9.34275 1.48275 9.41826 1.35119 9.51902 1.23792C9.61978 1.12466 9.74368 1.03204 9.88321 0.965697C10.0227 0.899353 10.175 0.860664 10.3307 0.851977C10.4864 0.84329 10.6424 0.864786 10.7891 0.915162C10.9358 0.965537 11.0703 1.04374 11.1843 1.14503C11.2983 1.24632 11.3894 1.36858 11.4522 1.50439C11.515 1.6402 11.5482 1.78673 11.5496 1.9351L12.2231 13.2337C12.2415 13.5215 12.1391 13.8046 11.9384 14.0207C11.7376 14.2369 11.4549 14.3684 11.1523 14.3866H11.085" stroke="#404041" stroke-miterlimit="10"/>
<path d="M16.6137 14.393H16.5397C16.3886 14.3856 16.2407 14.3499 16.1042 14.2878C15.9678 14.2258 15.8457 14.1387 15.7449 14.0315C15.6441 13.9243 15.5666 13.7991 15.5169 13.6633C15.4672 13.5275 15.4463 13.3836 15.4554 13.2401L16.1289 1.94151C16.1303 1.79314 16.1635 1.64661 16.2263 1.5108C16.2891 1.37499 16.3802 1.25273 16.4942 1.15144C16.6082 1.05015 16.7426 0.971946 16.8894 0.92157C17.0361 0.871195 17.1921 0.849698 17.3478 0.858385C17.5035 0.867072 17.6558 0.905762 17.7953 0.972106C17.9348 1.03845 18.0587 1.13107 18.1595 1.24433C18.2602 1.3576 18.3357 1.48916 18.3814 1.63102C18.4271 1.77289 18.442 1.9221 18.4252 2.06961L17.7518 13.3618C17.7331 13.6411 17.604 13.9033 17.3904 14.0958C17.1768 14.2882 16.8945 14.3967 16.6003 14.3994" fill="#404041"/>
<path d="M16.6137 14.393H16.5397C16.3886 14.3856 16.2407 14.3499 16.1042 14.2878C15.9678 14.2258 15.8457 14.1387 15.7449 14.0315C15.6441 13.9243 15.5666 13.7991 15.5169 13.6633C15.4672 13.5275 15.4463 13.3836 15.4554 13.2401L16.1289 1.94151C16.1303 1.79314 16.1635 1.64661 16.2263 1.5108C16.2891 1.37499 16.3802 1.25273 16.4942 1.15144C16.6082 1.05015 16.7426 0.971946 16.8894 0.92157C17.0361 0.871195 17.1921 0.849698 17.3478 0.858385C17.5035 0.867072 17.6558 0.905762 17.7953 0.972106C17.9348 1.03845 18.0587 1.13107 18.1595 1.24433C18.2602 1.3576 18.3357 1.48916 18.3814 1.63102C18.4271 1.77289 18.442 1.9221 18.4252 2.06961L17.7518 13.3618C17.7331 13.6411 17.604 13.9033 17.3904 14.0958C17.1768 14.2882 16.8945 14.3967 16.6003 14.3994" stroke="#404041" stroke-miterlimit="10"/>
</svg>
