<svg xmlns="http://www.w3.org/2000/svg" id="Layer_1" data-name="Layer 1" viewBox="0 0 140 110"><defs><style>.cls-1,.cls-2{fill:#404041;}.cls-1{stroke:#404041;stroke-miterlimit:10;stroke-width:0.72px;}</style></defs><title>Artboard 1 copy 3</title><path class="cls-1" d="M91.61,31.42H48.39a9.83,9.83,0,0,0-9.83,9.82V68.75a9.84,9.84,0,0,0,9.83,9.83H91.61a9.84,9.84,0,0,0,9.83-9.83V41.24A9.83,9.83,0,0,0,91.61,31.42Zm5.9,37.33a5.91,5.91,0,0,1-5.9,5.9H48.39a5.91,5.91,0,0,1-5.9-5.9V41.24a5.9,5.9,0,0,1,5.9-5.89H91.61a5.9,5.9,0,0,1,5.9,5.89Z"/><path class="cls-2" d="M64.7,56H75.54a1.3,1.3,0,1,1,0,2.6h-1.3a2.6,2.6,0,0,0,0,5.19h1.3a6.49,6.49,0,0,0,0-13H64.8Z"/><path class="cls-2" d="M56.44,52.33a1.45,1.45,0,0,0,0,2.42s7.69,5.54,8.26,5.54l.17-10.48v-3.6C64.3,46.21,56.44,52.33,56.44,52.33Z"/></svg>