<svg width="54" height="33" viewBox="0 0 54 33" fill="none" xmlns="http://www.w3.org/2000/svg">
<path d="M49.2 2H5.15C3.4103 2 2 3.4103 2 5.15V28.03C2 29.7697 3.4103 31.18 5.15 31.18H49.2C50.9397 31.18 52.35 29.7697 52.35 28.03V5.15C52.35 3.4103 50.9397 2 49.2 2Z" stroke="#404041" stroke-width="3" stroke-miterlimit="10"/>
<path d="M8.28003 22.22H31.66" stroke="#404041" stroke-miterlimit="10"/>
<path d="M8.28003 25.57H31.66" stroke="#404041" stroke-width="2" stroke-miterlimit="10"/>
<path d="M43.62 22.22H40.18C39.1307 22.22 38.28 23.0684 38.28 24.115C38.28 25.1616 39.1307 26.01 40.18 26.01H43.62C44.6694 26.01 45.52 25.1616 45.52 24.115C45.52 23.0684 44.6694 22.22 43.62 22.22Z" stroke="#404041" stroke-miterlimit="10"/>
<path d="M15.12 15.49C16.39 12.42 19.74 9.66 21.79 9.62C21.6788 9.88805 21.608 10.1711 21.58 10.46C21.44 11.76 22.02 12.62 23.53 13.21C23.7955 13.3312 24.074 13.4218 24.36 13.48C25.96 13.89 26.57 14.05 27.92 14.35C28.43 14.46 29.52 14.58 29.26 15.51C29.07 16.12 28.41 16.35 27.73 16.4C26.1987 16.4236 24.6753 16.1765 23.23 15.67C21.1139 14.929 18.8553 14.686 16.63 14.96C16.0957 15.0315 15.5818 15.2119 15.12 15.49V15.49Z" fill="#404040"/>
<path d="M39.18 10.06C37.91 13.13 34.57 15.88 32.52 15.93C32.6202 15.6584 32.6906 15.3768 32.73 15.09C32.87 13.79 32.28 12.93 30.73 12.33C30.464 12.2191 30.1898 12.1289 29.91 12.06C28.3 11.65 27.69 11.49 26.35 11.2C25.83 11.08 24.75 10.97 25.01 10.04C25.19 9.42002 25.85 9.20002 26.54 9.15002C28.0717 9.12125 29.596 9.36853 31.04 9.88002C33.1568 10.618 35.4154 10.8575 37.64 10.58C38.1826 10.5101 38.7061 10.3334 39.18 10.06Z" fill="#404040"/>
</svg>
